<?xml version="1.0" encoding="UTF-8" standalone="no"?>
<!-- Created with Inkscape (http://www.inkscape.org/) -->

<svg
   xmlns:dc="http://purl.org/dc/elements/1.1/"
   xmlns:cc="http://creativecommons.org/ns#"
   xmlns:rdf="http://www.w3.org/1999/02/22-rdf-syntax-ns#"
   xmlns:svg="http://www.w3.org/2000/svg"
   xmlns="http://www.w3.org/2000/svg"
   xmlns:sodipodi="http://sodipodi.sourceforge.net/DTD/sodipodi-0.dtd"
   xmlns:inkscape="http://www.inkscape.org/namespaces/inkscape"
   inkscape:version="0.92.1 r15371"
   version="1.1"
   id="svg2"
   width="79.594727"
   height="101.73145"
   viewBox="0 0 79.594728 101.73144"
   sodipodi:docname="app-inkscape-icon.svg">
  <sodipodi:namedview
     pagecolor="#ffffff"
     bordercolor="#666666"
     borderopacity="1"
     objecttolerance="10"
     gridtolerance="10"
     guidetolerance="10"
     inkscape:pageopacity="0"
     inkscape:pageshadow="2"
     inkscape:window-width="1920"
     inkscape:window-height="1025"
     id="namedview4"
     showgrid="false"
     inkscape:zoom="2.8284271"
     inkscape:cx="117.35248"
     inkscape:cy="14.392267"
     inkscape:window-x="0"
     inkscape:window-y="33"
     inkscape:window-maximized="1"
     inkscape:current-layer="layer3"
     fit-margin-top="0"
     fit-margin-left="0"
     fit-margin-right="0"
     fit-margin-bottom="0" />
  <metadata
     id="metadata8">
    <rdf:RDF>
      <cc:Work
         rdf:about="">
        <dc:format>image/svg+xml</dc:format>
        <dc:type
           rdf:resource="http://purl.org/dc/dcmitype/StillImage" />
        <dc:title></dc:title>
      </cc:Work>
    </rdf:RDF>
  </metadata>
  <defs
     id="defs6" />
  <g
     style="display:none"
     inkscape:label="background"
     id="layer1"
     inkscape:groupmode="layer"
     transform="translate(-459.5656,-554.99632)">
    <rect
       y="397.99072"
       x="283.43179"
       height="379.05673"
       width="439.31158"
       id="rect4486"
       style="opacity:1;vector-effect:none;fill:#26a69a;fill-opacity:1;fill-rule:nonzero;stroke:#000000;stroke-width:2.95738912;stroke-linecap:butt;stroke-linejoin:miter;stroke-miterlimit:4;stroke-dasharray:none;stroke-dashoffset:0;stroke-opacity:1;paint-order:normal" />
  </g>
  <g
     inkscape:groupmode="layer"
     id="layer5"
     inkscape:label="shadow"
     style="display:inline"
     transform="translate(-93.86052,-93.860781)">
    <path
       transform="translate(-365.70508,-461.13554)"
       style="display:inline;fill:#25a094;fill-opacity:1;stroke-width:0.1"
       d="m 517.49952,554.99732 c -0.42208,0.0141 -0.89989,0.15599 -1.57617,0.42773 -0.9612,0.3862 -1.06744,0.40834 -1.39844,0.29688 -0.19723,-0.0664 -0.65226,-0.12215 -1.00976,-0.12305 -0.57307,-10e-4 -0.75534,0.0527 -1.54883,0.45117 -0.86101,0.43231 -0.92396,0.44914 -1.44336,0.36914 -0.63528,-0.0978 -1.42876,0.0232 -1.98047,0.30469 -0.21008,0.10718 -0.70209,0.49285 -1.09375,0.85547 l -0.71289,0.6582 h -0.67188 c -0.6412,0 -0.70399,0.0229 -1.33593,0.47266 -1.28814,0.91692 -2.55598,2.35939 -3.57422,4.06641 -0.27865,0.46712 -0.65878,1.24708 -0.98828,1.99414 -0.0431,-0.0459 -0.0892,-0.0858 -0.13281,-0.13086 -0.0621,-0.067 -0.12647,-0.1262 -0.18946,-0.19141 -0.0551,-0.0594 -0.11413,-0.10993 -0.16992,-0.16797 -0.001,-10e-4 -0.003,-0.003 -0.004,-0.004 -0.059,-0.0639 -0.12175,-0.11935 -0.18164,-0.18164 -0.0616,-0.0666 -0.12695,-0.12455 -0.18945,-0.18946 -0.0516,-0.0556 -0.106,-0.10377 -0.1582,-0.1582 -0.0596,-0.0645 -0.12314,-0.12071 -0.1836,-0.1836 -0.0538,-0.058 -0.10957,-0.10928 -0.16406,-0.16601 -0.0468,-0.0505 -0.0972,-0.0931 -0.14453,-0.14258 -0.0561,-0.0607 -0.11503,-0.11453 -0.17188,-0.17383 -0.0496,-0.0535 -0.10216,-0.1 -0.15234,-0.15234 -0.0483,-0.0521 -0.0996,-0.0974 -0.14844,-0.14844 -0.047,-0.0507 -0.097,-0.0948 -0.14453,-0.14453 -0.0455,-0.0491 -0.0946,-0.0905 -0.14062,-0.13867 -0.005,-0.006 -0.0105,-0.0101 -0.0156,-0.0156 -0.0325,-0.034 -0.0668,-0.0642 -0.0996,-0.0976 -0.0494,-0.0535 -0.10038,-0.10184 -0.15039,-0.1543 -0.0414,-0.0446 -0.0852,-0.0831 -0.12695,-0.12695 -0.0401,-0.0432 -0.0826,-0.0806 -0.12305,-0.12305 -0.0388,-0.0418 -0.08,-0.078 -0.11914,-0.11914 -0.0376,-0.0405 -0.0773,-0.0754 -0.11523,-0.11523 -0.036,-0.0388 -0.075,-0.0711 -0.11133,-0.10938 -0.028,-0.0302 -0.0577,-0.0561 -0.0859,-0.0859 -0.003,-0.003 -0.005,-0.005 -0.008,-0.008 -0.0371,-0.0401 -0.0758,-0.0757 -0.11328,-0.11523 -0.0321,-0.0346 -0.0673,-0.0635 -0.0996,-0.0977 -0.0306,-0.033 -0.063,-0.0612 -0.0937,-0.0937 -0.0137,-0.0148 -0.0292,-0.0263 -0.043,-0.041 -0.0159,-0.0163 -0.031,-0.0327 -0.0469,-0.0488 -0.0213,-0.023 -0.045,-0.0417 -0.0664,-0.0645 -0.0329,-0.0356 -0.0665,-0.0684 -0.0996,-0.10351 -0.0248,-0.0268 -0.0512,-0.0497 -0.0762,-0.0762 -0.0242,-0.0261 -0.0499,-0.0484 -0.0742,-0.0742 -0.0223,-0.024 -0.046,-0.0445 -0.0684,-0.0684 -0.021,-0.0227 -0.0433,-0.042 -0.0645,-0.0645 -0.0197,-0.0213 -0.0407,-0.0394 -0.0605,-0.0605 -0.0185,-0.0199 -0.0381,-0.0369 -0.0566,-0.0566 -0.0169,-0.0182 -0.0358,-0.0327 -0.0527,-0.0508 -0.0102,-0.011 -0.021,-0.0203 -0.0312,-0.0312 -0.0196,-0.0212 -0.0409,-0.0395 -0.0605,-0.0605 -0.008,-0.009 -0.0171,-0.0165 -0.0254,-0.0254 -0.0161,-0.0174 -0.0327,-0.0335 -0.0488,-0.0508 -0.01,-0.0103 -0.0217,-0.021 -0.0312,-0.0312 -0.008,-0.009 -0.019,-0.0184 -0.0274,-0.0273 -0.007,-0.008 -0.0161,-0.0136 -0.0234,-0.0215 -0.006,-0.007 -0.0115,-0.013 -0.0176,-0.0195 -0.005,-0.005 -0.0105,-0.0102 -0.0156,-0.0156 -0.003,-0.003 -0.007,-0.006 -0.01,-0.01 -0.002,-0.002 -0.004,-0.004 -0.006,-0.006 -0.0639,-0.0689 -0.1324,-0.12824 -0.19727,-0.19531 -0.0668,-0.0691 -0.13544,-0.13422 -0.20312,-0.20118 -0.009,-0.009 -0.0181,-0.0185 -0.0274,-0.0273 -0.008,-0.008 -0.0155,-0.0158 -0.0234,-0.0234 -0.0113,-0.0104 -0.0219,-0.0228 -0.0332,-0.0332 -0.003,-0.003 -0.006,-0.007 -0.01,-0.01 -0.002,-0.002 -0.004,-0.004 -0.006,-0.006 -0.016,-0.0148 -0.0308,-0.0322 -0.0469,-0.0469 -0.0516,-0.0489 -0.10036,-0.10486 -0.15234,-0.15234 -0.007,-0.006 -0.0129,-0.0135 -0.0195,-0.0195 -0.25925,-0.23856 -0.5233,-0.45842 -0.78711,-0.6582 l -0.0117,-0.01 -0.006,-0.006 -0.79492,-0.60157 h -0.70898 -0.70704 l -0.68164,-0.64648 -0.0137,-0.0137 -0.0176,-0.0176 c -0.19414,-0.18442 -0.41086,-0.3698 -0.60547,-0.52344 -0.19862,-0.15681 -0.37408,-0.27948 -0.47656,-0.32812 -0.56887,-0.27023 -1.35457,-0.3795 -1.97851,-0.27735 -0.52755,0.0864 -0.57735,0.0735 -1.25586,-0.29883 -0.9864,-0.5412 -1.52572,-0.64161 -2.42969,-0.45312 l -0.71875,0.15039 -0.79297,-0.33984 c -1.43442,-0.61398 -2.29987,-0.6381 -3.13672,-0.0879 l -0.38476,0.2539 -0.81446,-0.2207 c -1.32019,-0.35622 -2.62047,-0.17999 -3.36523,0.45508 -0.094,0.0802 -0.54225,0.14076 -1.20117,0.16406 -0.91624,0.0323 -1.11089,0.0716 -1.50196,0.30078 -0.24681,0.14465 -0.53447,0.35925 -0.64062,0.47656 -0.16928,0.18704 -0.2626,0.20424 -0.75586,0.14844 -1.27957,-0.14476 -2.80526,0.30292 -3.64063,1.06641 -0.53855,0.49224 -0.53983,0.49218 -1.23828,0.49218 -2.26134,0 -3.46905,1.62998 -2.71093,3.65625 l 0.21093,0.5625 -0.36133,0.70118 c -0.54346,1.0565 -0.47474,1.86731 0.25586,3.00586 0.28812,0.44901 0.30291,0.51459 0.19727,0.86718 -0.25941,0.86583 -0.0142,1.77678 0.75977,2.82813 0.11337,0.15402 0.19904,0.27002 0.26367,0.37109 0.19389,0.30321 0.19915,0.46488 0.20703,1.05664 0.007,0.50217 0.0829,0.89993 0.25586,1.26563 0.0854,0.18068 0.19432,0.35506 0.33203,0.52734 0.003,0.003 0.007,0.006 0.01,0.01 0.004,0.005 0.0114,0.0104 0.0156,0.0156 0.13252,0.1625 0.2847,0.32415 0.4707,0.49414 0.003,0.002 0.003,0.005 0.006,0.008 0.003,0.002 0.003,0.004 0.006,0.006 0.002,10e-4 0.002,0.003 0.004,0.004 0.002,0.002 0.004,0.002 0.006,0.004 0.008,0.007 0.0102,0.0108 0.0176,0.0176 0,0 0.002,0.002 0.002,0.002 0.003,0.003 0.004,0.007 0.008,0.01 0.005,0.005 0.007,0.007 0.0117,0.0117 0.004,0.004 0.007,0.008 0.0117,0.0117 0.006,0.005 0.008,0.008 0.0137,0.0137 0.005,0.005 0.008,0.009 0.0137,0.0137 0.007,0.007 0.0105,0.009 0.0176,0.0156 0.006,0.005 0.008,0.0105 0.0137,0.0156 0.008,0.007 0.0117,0.0104 0.0195,0.0176 0.006,0.006 0.009,0.0117 0.0156,0.0176 0.008,0.008 0.0113,0.012 0.0195,0.0195 0.007,0.007 0.012,0.0127 0.0195,0.0195 0.009,0.009 0.0125,0.0132 0.0215,0.0215 0.009,0.008 0.0144,0.0152 0.0234,0.0234 0.0111,0.0101 0.0148,0.0156 0.0254,0.0254 0.008,0.008 0.0132,0.0139 0.0215,0.0215 0.011,0.0101 0.0148,0.0157 0.0254,0.0254 0.01,0.009 0.0156,0.0165 0.0254,0.0254 7.5e-4,6.9e-4 10e-4,10e-4 0.002,0.002 0,0 0.002,0.002 0.002,0.002 0.0453,0.0531 0.0915,0.10522 0.11914,0.15625 0.0777,0.14325 0.0968,0.30098 0.12304,0.58984 0.0474,0.52314 0.2371,1.01537 0.57422,1.49414 0.14995,0.21295 0.33896,0.42295 0.54883,0.63086 0.0225,0.0223 0.0354,0.0461 0.0586,0.0684 0.001,10e-4 0.002,0.003 0.004,0.004 0.008,0.007 0.0157,0.0141 0.0234,0.0215 0.001,0.001 0.003,0.005 0.004,0.006 0.011,0.0106 0.0221,0.0207 0.0332,0.0312 0.006,0.006 0.0116,0.0119 0.0176,0.0176 0.01,0.01 0.0191,0.0196 0.0293,0.0293 0.0113,0.011 0.0217,0.0222 0.0332,0.0332 0.0108,0.0105 0.0203,0.0208 0.0313,0.0312 0.0179,0.0174 0.0344,0.0353 0.0527,0.0527 0.012,0.0117 0.0229,0.0235 0.0352,0.0352 0.0204,0.02 0.0395,0.0406 0.0605,0.0605 0.0162,0.0157 0.0323,0.0312 0.0488,0.0469 0.0199,0.0194 0.0382,0.0392 0.0586,0.0586 0.0209,0.0204 0.041,0.0402 0.0625,0.0605 0.021,0.0206 0.0389,0.042 0.0605,0.0625 0.0276,0.0271 0.0534,0.055 0.082,0.082 0.0233,0.0228 0.0462,0.0456 0.0703,0.0684 0.0264,0.0259 0.0508,0.0523 0.0781,0.0781 0.0283,0.0278 0.0546,0.0562 0.084,0.084 0.0293,0.0288 0.0575,0.0572 0.0879,0.0859 0.0309,0.0305 0.0596,0.0614 0.0918,0.0918 0.0315,0.0311 0.0608,0.0627 0.0937,0.0937 0.0341,0.0337 0.0659,0.0679 0.10156,0.10156 0.0347,0.0343 0.0672,0.0693 0.10352,0.10352 0.0363,0.036 0.0713,0.0716 0.10937,0.10742 0.0373,0.037 0.0721,0.0745 0.11133,0.11132 0.002,0.002 0.004,0.004 0.006,0.006 0.02,0.0584 0.0384,0.10546 0.0605,0.17774 0.0423,0.13806 0.10064,0.27492 0.16992,0.41016 0.0676,0.13189 0.14656,0.26244 0.23633,0.38867 0.0898,0.12632 0.1902,0.2495 0.29883,0.36718 0.004,0.004 0.008,0.008 0.0117,0.0117 10e-4,10e-4 0.003,0.003 0.004,0.004 0.002,0.002 0.004,0.004 0.006,0.006 6.3e-4,6.6e-4 10e-4,10e-4 0.002,0.002 0.006,0.006 0.0119,0.0115 0.0176,0.0176 0.001,0.001 0.003,0.003 0.004,0.004 0.002,0.002 0.004,0.004 0.006,0.006 0.008,0.009 0.0172,0.0168 0.0254,0.0254 0.002,0.003 0.005,0.005 0.008,0.008 0.0118,0.0129 0.0251,0.0243 0.0371,0.0371 0.0173,0.0188 0.037,0.0361 0.0547,0.0547 0.006,0.007 0.0133,0.0129 0.0195,0.0195 0.0114,0.0125 0.0255,0.0228 0.0371,0.0352 0.0194,0.0213 0.0406,0.0415 0.0606,0.0625 0.0145,0.0158 0.032,0.0293 0.0469,0.0449 0.0149,0.0162 0.0317,0.0308 0.0469,0.0469 0.0213,0.0234 0.0445,0.0454 0.0664,0.0684 0.0197,0.0216 0.0422,0.0413 0.0625,0.0625 0.0243,0.0267 0.053,0.05 0.0781,0.0762 0.0204,0.0222 0.0434,0.0426 0.0645,0.0645 0.0247,0.0271 0.0525,0.0516 0.0781,0.0781 0.0228,0.025 0.0487,0.0477 0.0723,0.0723 0.031,0.0342 0.0653,0.0663 0.0977,0.0996 0.0262,0.0286 0.0568,0.054 0.084,0.082 0.0293,0.0321 0.0632,0.0604 0.0937,0.0918 0.0287,0.0315 0.06,0.061 0.0899,0.0918 0.0362,0.04 0.0771,0.0765 0.11523,0.11523 0.0315,0.0344 0.0667,0.0661 0.0996,0.0996 0.0348,0.0382 0.0748,0.0722 0.11133,0.10938 0.0333,0.0366 0.0706,0.0699 0.10547,0.10547 0.0389,0.0431 0.0819,0.0833 0.12304,0.125 0.0386,0.0426 0.0822,0.0818 0.12305,0.12304 0.0399,0.044 0.0848,0.0844 0.12695,0.12696 0.0435,0.048 0.0924,0.0924 0.13867,0.13867 0.0403,0.0442 0.0863,0.0842 0.12891,0.12695 0.0443,0.0488 0.0935,0.0936 0.14063,0.14063 0.0424,0.0468 0.0898,0.0896 0.13476,0.13476 0.048,0.0533 0.10101,0.10315 0.15235,0.1543 0.0506,0.056 0.10782,0.10655 0.16211,0.16016 0.0443,0.0487 0.0935,0.0937 0.14062,0.14062 0.0519,0.0577 0.1102,0.11081 0.16602,0.16602 0.0532,0.0589 0.11259,0.1136 0.16992,0.16992 0.0495,0.0546 0.10523,0.10394 0.1582,0.15625 0.0577,0.0642 0.1211,0.12448 0.18359,0.18554 0.0544,0.06 0.11526,0.11466 0.17383,0.17188 0.0567,0.0628 0.11837,0.12185 0.17969,0.18164 0.0579,0.0641 0.12286,0.1226 0.18555,0.18359 0.0594,0.0659 0.12497,0.12689 0.18945,0.18946 0.0582,0.0645 0.12246,0.12416 0.18555,0.18554 0.0443,0.0494 0.0935,0.095 0.14062,0.14258 -4.10377,2.64538 -6.27891,5.50725 -7.30273,9.63281 -0.32772,1.32055 -0.44887,2.2076 -0.54297,3.9668 -0.0797,1.49002 -0.0888,1.52964 -0.43945,2.15039 -0.28751,0.50889 -0.51672,0.75013 -1.17579,1.23242 -2.17023,1.58811 -4.21256,4.50914 -5.17382,7.40235 -0.63305,1.90535 -0.76758,2.79566 -0.76758,5.04687 0,2.18739 0.0885,2.84159 0.61914,4.55078 0.25275,0.81409 0.69693,1.78747 1.21875,2.72657 0.51863,0.93335 1.11474,1.83348 1.68359,2.50195 0.002,0.002 0.004,0.004 0.006,0.006 0.10126,0.11917 0.18071,0.21878 0.24805,0.31836 0.20615,0.30483 0.29614,0.61922 0.52734,1.57422 0.18271,0.75466 0.65445,2.29633 1.04883,3.42383 0.39439,1.1275 0.82799,2.59 0.96289,3.25 0.37475,1.83346 0.97056,3.49213 1.80078,5.00976 0.20692,0.37824 0.42761,0.74848 0.66407,1.10938 0.23525,0.35907 0.48501,0.70992 0.75,1.05273 0.005,0.006 0.0109,0.0114 0.0156,0.0176 0.005,0.007 0.0106,0.013 0.0156,0.0195 0.25793,0.33172 0.52813,0.65731 0.81446,0.97461 0.002,0.002 0.004,0.004 0.006,0.006 0.008,0.009 0.0174,0.0166 0.0254,0.0254 0.003,0.003 0.007,0.006 0.01,0.01 10e-4,10e-4 0.003,0.003 0.004,0.004 6.1e-4,6.8e-4 10e-4,0.001 0.002,0.002 3.7e-4,4.1e-4 -3.7e-4,0.002 0,0.002 0,0 0.002,0.002 0.002,0.002 0.0375,0.0416 0.0811,0.0798 0.11914,0.12109 0.14741,0.15923 0.30224,0.31498 0.45703,0.47071 0.1063,0.10685 0.2027,0.21897 0.3125,0.32422 6.7e-4,6.4e-4 10e-4,10e-4 0.002,0.002 0.001,10e-4 0.003,0.003 0.004,0.004 0.004,0.004 0.01,0.008 0.0137,0.0117 0.004,0.004 0.007,0.009 0.0117,0.0137 0.006,0.005 0.0118,0.0101 0.0176,0.0156 0,0 0.002,0.002 0.002,0.002 0.008,0.007 0.0137,0.016 0.0215,0.0234 0.002,0.002 0.004,0.004 0.006,0.006 0.007,0.007 0.0141,0.0144 0.0215,0.0215 0.002,0.002 0.005,0.004 0.008,0.006 0.008,0.008 0.015,0.0173 0.0234,0.0254 0.003,0.003 0.005,0.005 0.008,0.008 0.009,0.009 0.0179,0.0183 0.0273,0.0273 0.007,0.006 0.0147,0.0111 0.0215,0.0176 0.007,0.007 0.0125,0.0147 0.0195,0.0215 0.0151,0.0146 0.0278,0.0304 0.043,0.0449 0.006,0.005 0.0118,0.0101 0.0176,0.0156 0.0107,0.0104 0.0205,0.0209 0.0312,0.0312 0.0177,0.0172 0.0329,0.0356 0.0508,0.0527 0.004,0.004 0.009,0.008 0.0137,0.0117 0.0151,0.0146 0.0278,0.0304 0.043,0.0449 0.004,0.004 0.009,0.008 0.0137,0.0117 0.0164,0.0159 0.0304,0.033 0.0469,0.0488 0.004,0.004 0.009,0.008 0.0137,0.0117 0.0178,0.0172 0.0329,0.0356 0.0508,0.0527 0.009,0.008 0.0186,0.015 0.0273,0.0234 0.0151,0.0146 0.0278,0.0304 0.043,0.0449 0,0 0.002,0.002 0.002,0.002 0.0244,0.0236 0.0457,0.0487 0.0703,0.0723 0.005,0.005 0.0106,0.009 0.0156,0.0137 0.0211,0.0204 0.0393,0.0422 0.0606,0.0625 0.006,0.005 0.0118,0.0101 0.0176,0.0156 0.0224,0.0217 0.0419,0.0448 0.0644,0.0664 0.01,0.009 0.0195,0.018 0.0293,0.0273 0.0194,0.0188 0.0371,0.0379 0.0566,0.0566 0.006,0.005 0.0118,0.0101 0.0176,0.0156 0.0251,0.0243 0.047,0.05 0.0723,0.0742 0.006,0.005 0.0118,0.0101 0.0176,0.0156 0.0264,0.0256 0.0496,0.0526 0.0762,0.0781 0.002,0.002 0.005,0.004 0.008,0.006 0.0314,0.0305 0.0582,0.0634 0.0898,0.0937 0.007,0.007 0.016,0.0124 0.0234,0.0195 0.0274,0.0266 0.0505,0.0555 0.0781,0.082 0.0108,0.0103 0.0224,0.019 0.0332,0.0293 0.0257,0.0249 0.0483,0.0513 0.0742,0.0762 0.003,0.003 0.006,0.007 0.01,0.01 0.0343,0.0334 0.0649,0.0683 0.0996,0.10156 0.008,0.007 0.0157,0.0141 0.0234,0.0215 0.0317,0.0308 0.0598,0.0631 0.0918,0.0937 0.008,0.008 0.0173,0.0137 0.0254,0.0215 0.0327,0.0318 0.0607,0.066 0.0937,0.0977 0.008,0.008 0.017,0.0154 0.0254,0.0234 0.0337,0.0327 0.0636,0.067 0.0977,0.0996 0.009,0.008 0.0186,0.015 0.0273,0.0234 0.0347,0.0337 0.0646,0.0699 0.0996,0.10352 0.009,0.009 0.0182,0.0167 0.0274,0.0254 0.0357,0.0347 0.0675,0.0709 0.10351,0.10547 0.0128,0.0123 0.0262,0.0229 0.0391,0.0352 0.0337,0.0327 0.0636,0.067 0.0977,0.0996 0.005,0.005 0.0106,0.009 0.0156,0.0137 0.0426,0.0416 0.0799,0.0856 0.12305,0.12695 0.0101,0.01 0.0211,0.0177 0.0312,0.0273 0.0393,0.0383 0.0735,0.0791 0.11328,0.11719 0.0101,0.01 0.0211,0.0177 0.0312,0.0273 0.0406,0.0396 0.0761,0.0817 0.11719,0.1211 0.0108,0.0104 0.0224,0.019 0.0332,0.0293 0.0413,0.0403 0.0774,0.083 0.11914,0.12304 0.0108,0.0103 0.0224,0.019 0.0332,0.0293 0.0426,0.0416 0.0799,0.0856 0.12304,0.12695 0.0108,0.0103 0.0224,0.019 0.0332,0.0293 0.0439,0.0429 0.0825,0.0882 0.12695,0.13086 0.0145,0.0139 0.0304,0.0252 0.0449,0.0391 0.0419,0.0409 0.0787,0.0843 0.1211,0.125 0.007,0.007 0.016,0.0124 0.0234,0.0195 0.0501,0.0491 0.0937,0.10164 0.14453,0.15039 0.0152,0.0146 0.0317,0.0265 0.0469,0.041 0.0439,0.0429 0.0825,0.0882 0.12695,0.13086 0.0118,0.0113 0.0253,0.02 0.0371,0.0312 0.0487,0.0477 0.0912,0.0991 0.14063,0.14648 0.008,0.008 0.0173,0.0137 0.0254,0.0215 0.0534,0.0524 0.10007,0.10817 0.15429,0.16015 0.0128,0.0123 0.0262,0.0229 0.0391,0.0352 0.0504,0.0494 0.0953,0.10132 0.14648,0.15039 0.0158,0.0152 0.033,0.0279 0.0488,0.043 0.0491,0.0481 0.0927,0.0987 0.14258,0.14648 0.009,0.009 0.0182,0.0167 0.0273,0.0254 0.057,0.056 0.10809,0.1144 0.16602,0.16993 0.0135,0.0129 0.0275,0.0242 0.041,0.0371 0.0537,0.0527 0.1017,0.10786 0.15625,0.16016 0.0138,0.0133 0.0291,0.0239 0.043,0.0371 0.0553,0.0543 0.10391,0.1121 0.16016,0.16602 0.0172,0.0165 0.0355,0.0305 0.0527,0.0469 0.053,0.052 0.10041,0.10655 0.1543,0.1582 0.0132,0.0126 0.0278,0.0226 0.041,0.0352 0.0586,0.0576 0.11031,0.11864 0.16993,0.17578 0.0135,0.0129 0.0275,0.0242 0.041,0.0371 0.0596,0.0586 0.11321,0.11963 0.17383,0.17773 0.0135,0.0129 0.0275,0.0242 0.041,0.0371 0.0609,0.0599 0.11576,0.12224 0.17773,0.18165 0.0115,0.011 0.0237,0.0203 0.0352,0.0312 0.0644,0.0635 0.12182,0.13041 0.1875,0.19336 0.0159,0.0152 0.0329,0.0278 0.0488,0.043 0.0612,0.0602 0.11543,0.12387 0.17774,0.1836 0.0158,0.0152 0.0329,0.0278 0.0488,0.043 0.0631,0.0622 0.11926,0.12779 0.18359,0.18945 0.0189,0.0181 0.0396,0.0328 0.0586,0.0508 0.0612,0.0602 0.11543,0.12387 0.17774,0.18359 0.0121,0.0116 0.025,0.0216 0.0371,0.0332 0.0689,0.0681 0.13078,0.13956 0.20117,0.20703 0.0165,0.0158 0.0342,0.0292 0.0508,0.0449 0.0664,0.0655 0.12567,0.13433 0.19336,0.19922 0.0172,0.0165 0.0355,0.0305 0.0527,0.0469 0.067,0.0662 0.12695,0.13564 0.19532,0.20118 0.0199,0.019 0.0406,0.0357 0.0605,0.0547 0.066,0.0652 0.12601,0.1327 0.19336,0.19727 0.0135,0.0129 0.0275,0.0242 0.041,0.0371 0.0735,0.0727 0.13974,0.14871 0.21484,0.2207 0.0206,0.0197 0.0419,0.037 0.0625,0.0566 0.068,0.0671 0.12985,0.13663 0.19922,0.20313 0.0138,0.0133 0.0291,0.0239 0.043,0.0371 0.0757,0.0751 0.14324,0.15426 0.2207,0.22851 0.0186,0.0178 0.038,0.0331 0.0566,0.0508 0.0728,0.0721 0.13847,0.14741 0.21289,0.21875 0.0216,0.0207 0.0448,0.038 0.0664,0.0586 0.0709,0.0701 0.13462,0.14348 0.20703,0.21289 0.0172,0.0165 0.0355,0.0305 0.0527,0.0469 0.0767,0.076 0.14614,0.15525 0.22461,0.23047 0.0152,0.0145 0.0317,0.0265 0.0469,0.041 0.0802,0.0797 0.1522,0.16341 0.23438,0.24218 0.0196,0.0188 0.0409,0.0341 0.0605,0.0527 0.077,0.0764 0.1458,0.15687 0.22461,0.23242 0.0223,0.0213 0.046,0.0393 0.0684,0.0606 0.076,0.0754 0.14486,0.15394 0.22266,0.22851 0.0162,0.0155 0.0326,0.0295 0.0488,0.0449 0.0831,0.0826 0.15893,0.16833 0.24414,0.25 0.0209,0.0201 0.0435,0.0367 0.0645,0.0566 0.0802,0.0797 0.1522,0.16341 0.23437,0.24218 0.0209,0.0201 0.0435,0.0367 0.0645,0.0566 0.0815,0.081 0.15476,0.16603 0.23828,0.2461 0.0212,0.0203 0.0432,0.0384 0.0645,0.0586 0.0825,0.082 0.15766,0.16702 0.24219,0.24805 0.0216,0.0207 0.0448,0.038 0.0664,0.0586 0.0834,0.083 0.15859,0.16995 0.24414,0.25196 0.0216,0.0207 0.0448,0.038 0.0664,0.0586 0.0847,0.0843 0.16116,0.17256 0.24805,0.25586 0.0243,0.0233 0.0499,0.0433 0.0742,0.0664 0.0837,0.0833 0.16021,0.16963 0.24609,0.25196 0.0182,0.0175 0.0384,0.0314 0.0566,0.0488 0.0908,0.0906 0.17233,0.18596 0.26563,0.27539 0.0246,0.0236 0.0514,0.043 0.0762,0.0664 0.086,0.0856 0.16371,0.17518 0.25195,0.25977 0.0209,0.02 0.0435,0.0367 0.0645,0.0566 0.0911,0.0909 0.17395,0.18564 0.26757,0.27539 0.0209,0.02 0.0435,0.0367 0.0645,0.0566 0.0924,0.0922 0.17651,0.18826 0.27148,0.2793 0.0212,0.0203 0.0432,0.0384 0.0645,0.0586 0.0933,0.0932 0.17942,0.18924 0.2754,0.28125 0.0195,0.0187 0.0409,0.0341 0.0605,0.0527 0.0965,0.0966 0.18385,0.19773 0.28321,0.29297 0.0243,0.0233 0.0498,0.0433 0.0742,0.0664 0.093,0.0929 0.1778,0.18956 0.27344,0.28125 0.0263,0.0252 0.0537,0.0472 0.0801,0.0723 0.0927,0.0926 0.17813,0.18793 0.27344,0.27929 0.0205,0.0197 0.0419,0.0371 0.0625,0.0566 0.0993,0.0995 0.19059,0.20264 0.29297,0.30078 0.0249,0.0239 0.0511,0.0446 0.0762,0.0684 0.0968,0.0969 0.18547,0.19741 0.28515,0.29297 0.0253,0.0243 0.0527,0.0443 0.0781,0.0684 0.0978,0.0979 0.18641,0.20035 0.28711,0.29688 0.0256,0.0246 0.0524,0.0459 0.0781,0.0703 0.0987,0.0989 0.18931,0.20133 0.29102,0.29883 0.026,0.0249 0.054,0.0456 0.0801,0.0703 0.0997,0.0999 0.19025,0.20427 0.29297,0.30273 0.026,0.0249 0.054,0.0456 0.0801,0.0703 0.10093,0.1012 0.19281,0.20688 0.29688,0.30664 0.026,0.0249 0.054,0.0456 0.0801,0.0703 0.10282,0.10319 0.19664,0.2108 0.30273,0.3125 0.0267,0.0255 0.0553,0.0469 0.082,0.0723 0.10283,0.10319 0.19665,0.2108 0.30274,0.3125 0.0266,0.0255 0.0553,0.0469 0.082,0.0723 0.10472,0.10519 0.20048,0.21473 0.30859,0.31836 0.0273,0.0262 0.0566,0.0482 0.084,0.0742 0.10535,0.10585 0.20176,0.21603 0.31054,0.32031 0.0273,0.0262 0.0566,0.0482 0.084,0.0742 0.10661,0.10718 0.20432,0.21865 0.31445,0.32422 0.028,0.0268 0.0578,0.0495 0.0859,0.0762 0.10724,0.10785 0.2056,0.21996 0.3164,0.32617 0.028,0.0268 0.0578,0.0496 0.0859,0.0762 0.1085,0.10918 0.20817,0.22258 0.32032,0.33008 0.03,0.0288 0.0616,0.0535 0.0918,0.082 0.10819,0.10885 0.2085,0.22095 0.32031,0.32813 0.0246,0.0236 0.0515,0.043 0.0762,0.0664 0.11447,0.11551 0.21934,0.23596 0.33789,0.34961 0.029,0.0278 0.0607,0.0505 0.0898,0.0781 0.11197,0.11285 0.21422,0.23074 0.33008,0.3418 0.0307,0.0294 0.0629,0.0548 0.0937,0.084 0.11133,0.11218 0.2149,0.22748 0.33008,0.33789 0.0266,0.0255 0.0553,0.0469 0.082,0.0723 0.11667,0.11784 0.22479,0.23957 0.3457,0.35547 0.0269,0.0258 0.055,0.0486 0.082,0.0742 0.11761,0.11885 0.2277,0.24056 0.34961,0.35743 0.0273,0.0262 0.0566,0.0482 0.084,0.0742 0.11854,0.11985 0.22863,0.24349 0.35156,0.36132 0.0266,0.0255 0.0553,0.0469 0.082,0.0723 0.12074,0.12219 0.23214,0.24904 0.35742,0.36914 0.0317,0.0304 0.0658,0.0558 0.0977,0.0859 0.11729,0.11851 0.22607,0.24087 0.34765,0.35742 0.0269,0.0258 0.055,0.0486 0.082,0.0742 0.12291,0.12452 0.23759,0.25265 0.36523,0.375 0.0314,0.0301 0.0642,0.0561 0.0957,0.0859 0.12042,0.12185 0.23248,0.24741 0.35743,0.36718 0.0317,0.0304 0.0658,0.0558 0.0976,0.0859 0.12136,0.12286 0.23342,0.25035 0.35938,0.37109 0.0317,0.0304 0.0658,0.0558 0.0976,0.0859 0.12261,0.1242 0.23598,0.25297 0.36328,0.375 0.0324,0.031 0.0671,0.0571 0.0996,0.0879 0.12323,0.12486 0.23726,0.25428 0.36524,0.37696 0.0324,0.031 0.0671,0.0571 0.0996,0.0879 0.12447,0.1262 0.23981,0.25688 0.36914,0.38086 0.0337,0.0323 0.0696,0.0598 0.10351,0.0918 0.12479,0.12654 0.24144,0.25657 0.3711,0.38086 0.029,0.0278 0.0607,0.0505 0.0898,0.0781 0.13039,0.13256 0.25099,0.27028 0.38672,0.40039 0.0334,0.032 0.0699,0.0581 0.10351,0.0898 0.12791,0.12989 0.24588,0.26505 0.37891,0.39258 0.0344,0.033 0.0709,0.0611 0.10547,0.0937 0.1279,0.12988 0.24783,0.2631 0.38086,0.39062 0.0307,0.0294 0.063,0.0548 0.0937,0.084 0.13286,0.13524 0.25807,0.27356 0.39648,0.40625 0.0303,0.0291 0.0633,0.0532 0.0937,0.082 0.13473,0.13726 0.25995,0.27944 0.40039,0.41406 0.0344,0.033 0.0709,0.0611 0.10547,0.0937 0.13194,0.13424 0.25517,0.27258 0.39258,0.4043 0.0354,0.034 0.0738,0.0621 0.10938,0.0957 0.13255,0.13491 0.25644,0.27389 0.39453,0.40625 0.031,0.0297 0.0645,0.0545 0.0957,0.084 0.13782,0.14061 0.26635,0.28597 0.41016,0.42383 0.0361,0.0346 0.075,0.0634 0.11133,0.0977 0.13441,0.13692 0.26028,0.27781 0.40039,0.41211 0.0317,0.0304 0.0658,0.0558 0.0976,0.0859 0.13967,0.14263 0.27019,0.28989 0.41602,0.42969 0.0354,0.0339 0.0738,0.0621 0.10937,0.0957 0.13782,0.14061 0.26635,0.28597 0.41016,0.42383 0.0361,0.0346 0.075,0.0634 0.11133,0.0976 0.13843,0.14129 0.26762,0.28728 0.41211,0.42578 0.0367,0.0352 0.0763,0.0648 0.11328,0.0996 0.13936,0.1423 0.27052,0.28827 0.41601,0.42774 0.033,0.0317 0.0684,0.0585 0.10157,0.0898 0.14397,0.14734 0.27914,0.29905 0.42968,0.44336 0.0371,0.0356 0.076,0.0664 0.11328,0.10156 0.14121,0.14431 0.27437,0.2922 0.42188,0.4336 0.0371,0.0355 0.076,0.0664 0.11328,0.10156 0.14305,0.14632 0.27821,0.29612 0.42773,0.43945 0.0381,0.0365 0.0789,0.0674 0.11719,0.10352 0.14306,0.14633 0.2782,0.29611 0.42774,0.43945 0.0344,0.0329 0.0709,0.0611 0.10547,0.0937 0.14796,0.15171 0.28843,0.30657 0.44336,0.45508 0.0344,0.033 0.0709,0.0611 0.10546,0.0937 0.1492,0.15306 0.291,0.30919 0.44727,0.45898 0.0347,0.0333 0.0725,0.0608 0.10742,0.0937 0.15012,0.15408 0.29194,0.31213 0.44922,0.46289 0.0351,0.0336 0.0722,0.0624 0.10742,0.0957 0.15134,0.15542 0.2945,0.31474 0.45313,0.46679 0.0392,0.0375 0.0817,0.0684 0.12109,0.10547 0.14859,0.15239 0.28776,0.30983 0.44336,0.45899 0.0391,0.0375 0.0818,0.0684 0.12109,0.10547 0.15043,0.15441 0.2916,0.31375 0.44922,0.46484 0.0398,0.0382 0.083,0.0697 0.12305,0.10742 0.15073,0.15475 0.29322,0.31343 0.45117,0.46485 0.0361,0.0346 0.0751,0.0634 0.11133,0.0976 0.15531,0.15981 0.30184,0.32421 0.46484,0.48047 0.0398,0.0381 0.083,0.0697 0.12305,0.10742 0.15348,0.15779 0.298,0.32029 0.45898,0.47461 0.0401,0.0384 0.0827,0.0714 0.12305,0.10938 0.1547,0.15913 0.30252,0.32095 0.46485,0.47656 0.0364,0.0349 0.0747,0.0651 0.11132,0.0996 0.15896,0.16386 0.31148,0.33011 0.47852,0.49023 0.0374,0.0359 0.0776,0.0661 0.11523,0.10157 0.15958,0.16453 0.3108,0.33336 0.47852,0.49414 0.0415,0.0398 0.0852,0.074 0.12695,0.11328 0.15714,0.16183 0.30764,0.32618 0.47266,0.48437 0.0377,0.0362 0.0773,0.0677 0.11523,0.10352 0.1617,0.1669 0.31626,0.33697 0.48633,0.5 0.0421,0.0404 0.0865,0.0753 0.12891,0.11523 0.15926,0.1642 0.31113,0.33174 0.47851,0.49219 0.0425,0.0408 0.0881,0.075 0.13086,0.11523 0.16018,0.16522 0.31208,0.33468 0.48047,0.4961 0.0425,0.0408 0.0881,0.075 0.13086,0.11523 0.1614,0.16657 0.31463,0.33729 0.48437,0.5 0.0428,0.0411 0.0878,0.0766 0.13086,0.11719 0.16231,0.16758 0.31754,0.33828 0.48829,0.50195 0.0432,0.0414 0.0894,0.0763 0.13281,0.11719 0.16322,0.1686 0.31847,0.34121 0.49023,0.50586 0.0408,0.0391 0.084,0.0727 0.125,0.11133 0.16699,0.17281 0.32795,0.34891 0.50391,0.51758 0.0438,0.042 0.0906,0.0776 0.13476,0.11914 0.16504,0.17062 0.32232,0.34513 0.4961,0.51172 0.0438,0.042 0.0907,0.0776 0.13476,0.11914 0.16686,0.17266 0.32616,0.34905 0.50196,0.51757 0.0445,0.0427 0.0919,0.0789 0.13672,0.1211 0.16745,0.17334 0.32743,0.35036 0.5039,0.51953 0.0445,0.0427 0.0919,0.0789 0.13672,0.12109 0.16867,0.1747 0.32999,0.35298 0.50781,0.52344 0.0449,0.043 0.0935,0.0786 0.13867,0.1211 0.16958,0.17571 0.33093,0.35591 0.50977,0.52734 0.0452,0.0433 0.0932,0.0803 0.13867,0.12305 0.17048,0.17672 0.33383,0.3569 0.51367,0.52929 0.0445,0.0426 0.092,0.079 0.13672,0.1211 0.17259,0.1791 0.33929,0.3605 0.52149,0.53515 0.0418,0.0401 0.0869,0.0737 0.1289,0.11328 0.17621,0.18318 0.34501,0.3703 0.53125,0.54883 0.0462,0.0443 0.0961,0.0813 0.14258,0.125 0.1738,0.18047 0.33989,0.36507 0.52344,0.54102 0.0459,0.044 0.0945,0.0816 0.14062,0.125 0.175,0.18181 0.34441,0.36573 0.5293,0.54297 0.0421,0.0404 0.0865,0.0753 0.12891,0.11523 0.1798,0.18726 0.35464,0.37619 0.54492,0.55859 0.0405,0.0388 0.0843,0.071 0.125,0.10938 0.18262,0.19046 0.35928,0.38487 0.55273,0.57031 0.0472,0.0453 0.097,0.0842 0.14453,0.12891 0.17771,0.18487 0.34919,0.37259 0.53711,0.55273 0.0476,0.0456 0.0986,0.0839 0.14649,0.12891 0.1786,0.1859 0.35012,0.37553 0.53906,0.55664 0.0475,0.0456 0.0987,0.084 0.14649,0.12891 0.1804,0.18793 0.35396,0.37944 0.54492,0.5625 0.0472,0.0453 0.097,0.0842 0.14453,0.1289 0.1816,0.1893 0.35848,0.38012 0.55078,0.56446 0.0445,0.0426 0.0919,0.079 0.13672,0.12109 0.18519,0.19338 0.3642,0.38991 0.56055,0.57812 0.0489,0.0469 0.10114,0.0866 0.15039,0.13282 0.18279,0.19066 0.35908,0.38468 0.55273,0.57031 0.0489,0.0469 0.10114,0.0866 0.15039,0.13281 0.184,0.19202 0.36164,0.3873 0.55664,0.57422 0.0492,0.0472 0.10082,0.0882 0.15039,0.13477 0.18489,0.19304 0.36455,0.38828 0.56055,0.57617 0.0489,0.0469 0.10114,0.0866 0.15039,0.13281 0.18668,0.19509 0.36838,0.3922 0.56641,0.58203 0.0458,0.0439 0.0945,0.0816 0.14062,0.125 0.19055,0.19952 0.37572,0.40168 0.57813,0.5957 0.0489,0.0469 0.10114,0.0866 0.15039,0.13282 0.18906,0.19782 0.37349,0.39743 0.57422,0.58984 0.0465,0.0446 0.0958,0.0829 0.14257,0.12695 0.19234,0.20157 0.37956,0.4056 0.58399,0.60157 0.0502,0.0481 0.10373,0.0893 0.1543,0.13671 0.19055,0.19953 0.37571,0.40168 0.57812,0.59571 0.0509,0.0488 0.10496,0.0905 0.15625,0.13867 0.19115,0.20021 0.377,0.40299 0.58008,0.59766 0.0513,0.0492 0.10655,0.0902 0.1582,0.13867 0.19204,0.20123 0.37794,0.40592 0.58203,0.60156 0.0503,0.0482 0.10369,0.0892 0.1543,0.13672 0.19441,0.20396 0.38501,0.4092 0.5918,0.60742 0.0482,0.0462 0.0999,0.0853 0.14843,0.13086 0.19738,0.20738 0.38946,0.41769 0.59961,0.61914 0.0509,0.0488 0.10496,0.0905 0.15625,0.13867 0.19619,0.20602 0.38885,0.41313 0.59766,0.61328 0.0485,0.0465 0.0996,0.0869 0.14844,0.13282 0.19944,0.20977 0.39491,0.42129 0.60742,0.625 0.0526,0.0504 0.10909,0.0929 0.16211,0.14258 0.19738,0.20738 0.38945,0.41768 0.59961,0.61914 0.053,0.0507 0.10877,0.0945 0.16211,0.14453 0.19826,0.2084 0.39235,0.41867 0.60351,0.62109 0.0533,0.0511 0.11037,0.0942 0.16407,0.14453 0.19915,0.20944 0.39329,0.42161 0.60546,0.625 0.0536,0.0514 0.11005,0.0959 0.16407,0.14649 0.20003,0.21045 0.39619,0.4226 0.60937,0.62695 0.0526,0.0505 0.10909,0.0929 0.16211,0.14258 0.2024,0.2132 0.40131,0.42782 0.61719,0.63476 0.0502,0.0481 0.10373,0.0893 0.1543,0.13672 0.20563,0.21697 0.40737,0.436 0.62695,0.64649 0.053,0.0507 0.10877,0.0945 0.16211,0.14453 0.20446,0.2156 0.40676,0.43143 0.625,0.64062 0.0509,0.0488 0.105,0.0906 0.15625,0.13867 0.2074,0.21903 0.41121,0.43992 0.63281,0.65235 0.0553,0.053 0.11418,0.0982 0.16992,0.15039 0.20505,0.21629 0.40609,0.43469 0.625,0.64453 0.0553,0.053 0.11418,0.0982 0.16992,0.15039 0.20623,0.21766 0.40865,0.4373 0.62891,0.64844 0.0553,0.053 0.11418,0.0982 0.16992,0.15039 0.2074,0.21903 0.41121,0.43992 0.63281,0.65234 0.0539,0.0517 0.11169,0.0956 0.16602,0.14649 0.21004,0.22212 0.41794,0.44482 0.64258,0.66015 0.0522,0.0501 0.10754,0.0932 0.16015,0.14258 0.21268,0.22521 0.42273,0.45169 0.65039,0.66992 0.0546,0.0524 0.11291,0.0969 0.16797,0.14844 0.2118,0.22418 0.42179,0.44875 0.64844,0.66602 0.0529,0.0507 0.10882,0.0946 0.16211,0.14453 0.21443,0.22727 0.42657,0.45561 0.65625,0.67578 0.057,0.0547 0.11831,0.1005 0.17578,0.1543 0.21239,0.22487 0.42111,0.452 0.64844,0.66992 0.0573,0.055 0.11799,0.10216 0.17578,0.15625 0.21326,0.22589 0.42401,0.45299 0.65234,0.67187 0.0577,0.0553 0.11958,0.10184 0.17774,0.15625 0.21414,0.22694 0.42494,0.45593 0.6543,0.67578 0.056,0.0537 0.11544,0.0995 0.17187,0.15235 0.21706,0.23037 0.4333,0.46051 0.66602,0.68359 0.0546,0.0523 0.11295,0.0969 0.16796,0.14844 0.2194,0.23312 0.43647,0.46769 0.67188,0.69336 0.0584,0.056 0.12085,0.10316 0.17969,0.1582 0.21706,0.23037 0.43134,0.46247 0.66406,0.68555 0.0583,0.0559 0.1209,0.10321 0.17969,0.1582 0.21881,0.23244 0.43518,0.46639 0.66992,0.69141 0.056,0.0537 0.11545,0.0995 0.17187,0.15234 0.2218,0.23598 0.44345,0.47284 0.68165,0.70117 0.0573,0.055 0.11798,0.10217 0.17578,0.15625 0.22171,0.23588 0.44353,0.47098 0.68164,0.69922 0.0526,0.0504 0.10913,0.0929 0.16211,0.14258 0.2273,0.24253 0.45462,0.48624 0.69921,0.7207 0.0597,0.0572 0.12339,0.10583 0.1836,0.16211 0.2223,0.23657 0.44286,0.47424 0.68164,0.70313 0.0604,0.0579 0.12466,0.10715 0.18555,0.16406 0.22287,0.23726 0.44414,0.47554 0.68359,0.70508 0.0584,0.056 0.12085,0.10316 0.17969,0.1582 0.22607,0.24106 0.45215,0.48175 0.69531,0.71485 0.0573,0.0549 0.11804,0.10221 0.17578,0.15624 0.22809,0.24348 0.45566,0.48731 0.70117,0.72266 0.0603,0.0578 0.12472,0.10721 0.18555,0.16406 0.22693,0.24209 0.4531,0.4847 0.69727,0.71875 0.0614,0.0589 0.12752,0.10816 0.18945,0.16602 0.22723,0.24244 0.45276,0.48632 0.69726,0.7207 0.0617,0.0592 0.1272,0.10982 0.18946,0.16797 0.22809,0.24347 0.45566,0.48731 0.70117,0.72266 0.0617,0.0592 0.1272,0.10982 0.18945,0.16797 0.22925,0.24485 0.45822,0.48992 0.70508,0.72656 0.059,0.0566 0.12212,0.10449 0.18164,0.16015 0.23293,0.24927 0.46564,0.49752 0.7168,0.73829 0.0583,0.0559 0.1209,0.10321 0.17969,0.1582 0.23479,0.2515 0.47127,0.50324 0.72461,0.74609 0.0593,0.0569 0.12179,0.10616 0.18164,0.16211 0.23494,0.25169 0.47109,0.50112 0.7246,0.74414 0.0623,0.0598 0.12853,0.11121 0.19141,0.16993 0.23386,0.25038 0.46846,0.50038 0.7207,0.74218 0.0634,0.0608 0.13133,0.11215 0.19532,0.17188 0.23415,0.25073 0.46811,0.50201 0.7207,0.74414 0.0637,0.0611 0.13101,0.11381 0.19531,0.17383 0.23501,0.25176 0.47102,0.503 0.72461,0.74609 0.0641,0.0615 0.1326,0.11348 0.19727,0.17383 0.23587,0.25281 0.47195,0.50593 0.72656,0.75 0.0641,0.0615 0.1326,0.11348 0.19727,0.17383 0.23702,0.25419 0.47451,0.50855 0.73046,0.7539 0.0621,0.0595 0.12879,0.10949 0.19141,0.16797 0.24018,0.25801 0.48252,0.51476 0.74219,0.76367 0.061,0.0585 0.12598,0.10854 0.1875,0.16602 0.24218,0.26043 0.48603,0.52032 0.74805,0.77148 0.0624,0.0598 0.12846,0.11115 0.1914,0.16992 0.24218,0.26044 0.48799,0.51837 0.75,0.76954 0.059,0.0565 0.12217,0.10454 0.18164,0.16015 0.24647,0.26565 0.4966,0.52915 0.76367,0.78516 0.062,0.0595 0.12885,0.10953 0.19141,0.16797 0.24476,0.26356 0.49081,0.52717 0.75586,0.78125 0.0617,0.0591 0.12726,0.10987 0.18945,0.16797 0.2467,0.26592 0.49633,0.52888 0.76367,0.78515 0.0636,0.061 0.13113,0.11392 0.19532,0.17383 0.24617,0.26529 0.49694,0.52752 0.76367,0.7832 0.063,0.0604 0.12979,0.11253 0.19336,0.17188 0.24789,0.26738 0.49882,0.53339 0.76758,0.79101 0.0634,0.0608 0.13132,0.11216 0.19531,0.17188 0.24869,0.26836 0.49982,0.53443 0.76953,0.79297 0.0664,0.0637 0.13806,0.11721 0.20508,0.17969 0.2476,0.26703 0.4972,0.53371 0.76562,0.79101 0.0648,0.0621 0.13387,0.11482 0.19922,0.17578 0.24988,0.26982 0.50428,0.53699 0.77539,0.79688 0.061,0.0585 0.12598,0.10853 0.1875,0.16601 0.25442,0.27539 0.51452,0.54745 0.79102,0.8125 0.061,0.0585 0.12598,0.10854 0.1875,0.16602 0.25555,0.27677 0.51707,0.55007 0.79492,0.81641 0.0617,0.0591 0.12725,0.10986 0.18945,0.16796 0.25612,0.27748 0.51836,0.55138 0.79688,0.81836 0.065,0.0624 0.1336,0.11653 0.19922,0.17774 0.2547,0.27572 0.51418,0.54908 0.79101,0.81445 0.0688,0.066 0.14148,0.12281 0.21094,0.1875 0.25243,0.27294 0.50906,0.54386 0.7832,0.80664 0.0684,0.0656 0.14187,0.12121 0.21094,0.18555 0.25442,0.27538 0.51256,0.5494 0.78906,0.81445 0.0661,0.0634 0.13641,0.11748 0.20313,0.17969 0.25724,0.27887 0.52091,0.55399 0.80078,0.82226 0.0624,0.0598 0.12852,0.1112 0.19141,0.16993 0.26172,0.2844 0.52924,0.56449 0.81445,0.83789 0.0691,0.0662 0.14313,0.12254 0.21289,0.1875 0.25725,0.27887 0.51896,0.55594 0.79883,0.82422 0.0668,0.064 0.13767,0.11881 0.20508,0.18164 0.26059,0.283 0.52668,0.56187 0.81054,0.83398 0.0673,0.0646 0.13907,0.12026 0.20703,0.18359 0.2612,0.28376 0.52988,0.56315 0.81446,0.83594 0.0674,0.0646 0.139,0.1202 0.20703,0.1836 0.26232,0.28514 0.53048,0.56771 0.8164,0.84179 0.0681,0.0653 0.14021,0.12148 0.20899,0.18555 0.26288,0.28584 0.53371,0.56706 0.82031,0.8418 0.0681,0.0653 0.14027,0.12153 0.20899,0.18554 0.264,0.28725 0.53431,0.57164 0.82226,0.84766 0.0719,0.0689 0.14814,0.12782 0.2207,0.19531 0.26233,0.28515 0.53048,0.56771 0.81641,0.8418 0.0681,0.0653 0.14021,0.12148 0.20899,0.18555 0.26628,0.29008 0.54135,0.57682 0.83203,0.85546 0.0685,0.0657 0.1418,0.12115 0.21093,0.18555 0.26713,0.29113 0.54229,0.57976 0.83399,0.85938 0.0725,0.0695 0.14941,0.12915 0.22265,0.19726 0.26514,0.28864 0.53688,0.57425 0.82618,0.85156 0.0729,0.0699 0.15099,0.12883 0.22461,0.19727 0.26597,0.2897 0.53781,0.57718 0.82812,0.85547 0.0698,0.0669 0.14434,0.12382 0.21484,0.18945 0.2699,0.29459 0.54873,0.58438 0.84375,0.86719 0.0698,0.0669 0.1444,0.12387 0.21485,0.18945 0.27101,0.296 0.54933,0.58895 0.8457,0.87305 0.0739,0.0708 0.15195,0.13183 0.22656,0.20117 0.26906,0.29354 0.54584,0.5834 0.83985,0.86524 0.0742,0.0711 0.15353,0.1315 0.22851,0.20117 0.2699,0.29459 0.54678,0.58633 0.8418,0.86914 0.0745,0.0715 0.15321,0.13316 0.22852,0.20312 0.27073,0.29564 0.54967,0.58733 0.8457,0.8711 0.0745,0.0714 0.15321,0.13316 0.22851,0.20312 0.27185,0.29704 0.55224,0.58994 0.84961,0.875 0.0749,0.0718 0.1548,0.13284 0.23047,0.20313 0.27269,0.29809 0.55317,0.59287 0.85156,0.8789 0.0719,0.0689 0.14815,0.12782 0.22071,0.19532 0.27659,0.303 0.56408,0.60007 0.86719,0.89062 0.0718,0.0688 0.1482,0.12788 0.2207,0.19531 0.2777,0.30441 0.56469,0.60464 0.86914,0.89649 0.0719,0.0689 0.14814,0.12782 0.2207,0.19531 0.27883,0.30583 0.56918,0.60723 0.875,0.90039 0.0725,0.0695 0.14941,0.12916 0.22266,0.19727 0.27936,0.30651 0.57048,0.60661 0.87695,0.90039 0.0687,0.0659 0.14154,0.12286 0.21094,0.1875 0.28379,0.31213 0.58072,0.61707 0.89258,0.91601 0.0691,0.0663 0.14312,0.12254 0.21289,0.1875 0.28463,0.3132 0.58165,0.62001 0.89453,0.91992 0.0735,0.0705 0.15233,0.13022 0.22656,0.19922 0.28242,0.31039 0.57459,0.61673 0.88477,0.91407 0.0773,0.0741 0.16019,0.13651 0.23828,0.20898 0.2802,0.30757 0.56946,0.6115 0.87695,0.90625 0.0735,0.0705 0.15227,0.13016 0.22656,0.19922 0.28463,0.31319 0.58166,0.62 0.89454,0.91992 0.0745,0.0714 0.15327,0.13322 0.22851,0.20313 0.2849,0.31354 0.58133,0.62164 0.89453,0.92187 0.0783,0.075 0.16114,0.13952 0.24024,0.21289 0.28324,0.31143 0.57748,0.61772 0.88867,0.91602 0.0783,0.075 0.16113,0.13951 0.24023,0.21289 0.28435,0.31284 0.58005,0.62033 0.89258,0.91992 0.0789,0.0757 0.1624,0.14085 0.24219,0.21484 0.2849,0.31354 0.58132,0.62164 0.89453,0.92188 0.0789,0.0757 0.1624,0.14085 0.24219,0.21484 0.286,0.31495 0.58388,0.62426 0.89844,0.92578 0.0749,0.0718 0.1548,0.13284 0.23046,0.20313 0.29068,0.32093 0.59379,0.6344 0.91407,0.9414 0.0798,0.0765 0.1654,0.142 0.24609,0.2168 0.28794,0.31742 0.58738,0.62981 0.9043,0.93359 0.0756,0.0725 0.15606,0.13418 0.23242,0.20508 0.29233,0.32305 0.59763,0.63832 0.91992,0.94727 0.0801,0.0768 0.16508,0.14366 0.24609,0.21875 0.28986,0.31988 0.59285,0.63341 0.91211,0.93945 0.0806,0.0773 0.16653,0.14321 0.24805,0.21875 0.29069,0.32094 0.59378,0.63634 0.91406,0.94336 0.0806,0.0773 0.16653,0.14321 0.24805,0.21875 0.29179,0.32235 0.59634,0.63896 0.91797,0.94727 0.0809,0.0776 0.1662,0.14487 0.24805,0.2207 0.2926,0.3234 0.59924,0.63995 0.92187,0.94922 0.0813,0.0779 0.16779,0.14454 0.25,0.2207 0.29343,0.32447 0.60018,0.64288 0.92383,0.95313 0.0776,0.0744 0.15987,0.13818 0.23828,0.21093 0,0 0.002,0.002 0.002,0.002 0.29726,0.32941 0.61109,0.65008 0.93946,0.96484 0.0789,0.0756 0.16247,0.14092 0.24218,0.21484 0,0 0.002,0.002 0.002,0.002 0.29726,0.32941 0.60913,0.65203 0.9375,0.9668 0.0813,0.0779 0.16974,0.14649 0.25195,0.22265 0.29671,0.3287 0.60786,0.65073 0.93555,0.96485 0.0803,0.077 0.16493,0.14352 0.24609,0.21874 0.29893,0.33157 0.6149,0.65398 0.94531,0.97071 0.0795,0.0762 0.16374,0.14225 0.24414,0.21679 0.3009,0.33412 0.61833,0.65946 0.95118,0.97852 0.0802,0.0769 0.165,0.14359 0.24609,0.21875 0.30145,0.33484 0.61959,0.66075 0.95312,0.98047 0.0809,0.0775 0.16627,0.14493 0.24805,0.2207 0.302,0.33556 0.62086,0.664 0.95508,0.98438 0.0857,0.0821 0.17697,0.15225 0.26367,0.23242 0.29923,0.33196 0.61257,0.65751 0.94336,0.97461 0.0847,0.0812 0.17412,0.15124 0.25977,0.23047 0.30144,0.33483 0.61959,0.66075 0.95312,0.98047 0.0859,0.0824 0.17672,0.15398 0.26367,0.23437 0.30146,0.33484 0.61764,0.6627 0.95118,0.98242 0.0884,0.0847 0.18203,0.15762 0.27148,0.24024 0.30089,0.33411 0.61637,0.66141 0.94922,0.98047 0.0894,0.0857 0.18489,0.15863 0.27539,0.24218 0.30119,0.33451 0.616,0.66301 0.94922,0.98243 0.0901,0.0864 0.18615,0.15997 0.27734,0.24414 0.30175,0.33522 0.61727,0.6643 0.95117,0.98437 0.0911,0.0873 0.1871,0.16298 0.2793,0.24805 0.302,0.33555 0.61891,0.664 0.95312,0.98437 0.0917,0.0879 0.18836,0.16432 0.28126,0.25 0.30256,0.33629 0.62016,0.66529 0.95507,0.98633 0.0904,0.0867 0.18583,0.16164 0.27735,0.2461 0.30506,0.33955 0.62683,0.67207 0.96484,0.99609 0.0934,0.0896 0.19247,0.16668 0.28711,0.25391 0.30342,0.33739 0.62106,0.66818 0.95703,0.99023 0.0948,0.0909 0.195,0.16937 0.29102,0.25781 0.30396,0.33811 0.62234,0.66949 0.95898,0.99219 1.518,1.4552 3.19887,2.60416 4.85547,3.31836 0.4976,0.2145 1.27729,0.673 1.80469,1.0625 2.7343,2.0195 5.21918,3.44108 7.89648,4.51758 0.9393,0.3777 1.29589,0.57924 1.70899,0.96484 3.2912,3.0722 6.03928,4.42851 10.27148,5.07031 0.699,0.1064 3.42512,0.0501 4.38672,-0.0898 3.4678,-0.5043 6.63045,-2.07613 9.34375,-4.64453 0.7687,-0.7276 0.90044,-0.80914 2.11914,-1.30274 2.7366,-1.1083 5.18791,-2.51794 8.03711,-4.62304 0.5153,-0.3807 1.11564,-0.75599 1.33594,-0.83399 0.8177,-0.2884 2.39828,-1.19266 3.39648,-1.94336 3.5988,-2.7069 5.97453,-6.46725 6.76953,-10.71875 0.1082,-0.5786 0.51886,-1.96903 0.93946,-3.17773 0.6209,-1.7847 0.99591,-3.07378 1.32421,-4.55078 0.0244,-0.11 0.31855,-0.53672 0.65235,-0.94922 1.642,-2.0288 2.76195,-4.4386 3.25195,-7 0.2479,-1.2909 0.25227,-3.89469 0.01,-5.15039 -0.6608,-3.4225 -2.24103,-6.51396 -4.45703,-8.72266 -0.16058,-0.16003 -0.37438,-0.3365 -0.57032,-0.51172 -0.22052,-0.25365 -0.44447,-0.50384 -0.67968,-0.73828 -0.15738,-0.15685 -0.36692,-0.33025 -0.5586,-0.50195 -0.22218,-0.25585 -0.44844,-0.50587 -0.68555,-0.74219 -0.0458,-0.0456 -0.11245,-0.0988 -0.1621,-0.14648 -0.1755,-0.34867 -0.25334,-0.59479 -0.25391,-0.97266 -0.001,-0.9752 -0.19025,-2.82074 -0.40625,-3.96484 -0.4048,-2.1451 -1.21135,-4.15496 -2.34375,-5.84766 -0.52756,-0.78852 -1.29439,-1.63565 -2.20508,-2.46484 -0.37616,-0.42077 -0.80196,-0.84853 -1.26562,-1.26953 -0.36251,-0.40371 -0.77572,-0.81088 -1.21875,-1.21485 -0.23291,-0.26062 -0.51506,-0.52292 -0.78321,-0.78515 l 0.006,-0.002 c 0.471,-0.1484 1.07013,-0.40817 1.33203,-0.57617 0.5042,-0.3236 1.03202,-1.01539 1.13672,-1.49219 0.0523,-0.2383 0.14898,-0.31408 0.58008,-0.45508 1.557,-0.50929 2.39527,-1.29519 2.76367,-2.59179 0.0943,-0.332 0.2444,-0.49477 0.875,-0.95117 1.1774,-0.8522 1.74226,-1.69976 1.88086,-2.81836 0.0647,-0.5217 0.10938,-0.60046 0.55078,-0.97266 0.303,-0.2555 0.59672,-0.63474 0.79102,-1.02344 0.2663,-0.5337 0.30664,-0.72425 0.30664,-1.41015 0,-0.7633 0.0134,-0.80778 0.35351,-1.20508 0.77141,-0.9017 1.16297,-2.30689 0.85157,-3.05859 -0.1072,-0.25901 -0.0846,-0.33906 0.23828,-0.84376 0.7234,-1.13099 0.7688,-2.04709 0.1543,-3.12109 l -0.29102,-0.50976 0.20898,-0.54297 c 0.2539,-0.6585 0.28521,-1.68997 0.0664,-2.19727 -0.23594,-0.547 -0.65208,-0.93993 -1.23437,-1.18555 -0.007,-0.0183 -0.008,-0.0454 -0.0156,-0.0625 -0.23541,-0.54577 -0.6483,-0.9398 -1.22852,-1.18554 -0.007,-0.0176 -0.008,-0.044 -0.0156,-0.0606 -0.23519,-0.54526 -0.64918,-0.93975 -1.22852,-1.18555 -0.006,-0.0159 -0.007,-0.0397 -0.0137,-0.0547 -0.23463,-0.54398 -0.64548,-0.93767 -1.22265,-1.1836 -0.006,-0.0158 -0.007,-0.0398 -0.0137,-0.0547 -0.23383,-0.54211 -0.6447,-0.93358 -1.21875,-1.17969 -0.006,-0.0152 -0.007,-0.0383 -0.0137,-0.0527 -0.23327,-0.54082 -0.64296,-0.9315 -1.21484,-1.17773 -0.006,-0.0147 -0.008,-0.0369 -0.0137,-0.0508 -0.23295,-0.54006 -0.64229,-0.92948 -1.21289,-1.17578 -0.005,-0.014 -0.006,-0.0356 -0.0117,-0.0488 -0.2324,-0.53878 -0.64053,-0.92741 -1.20899,-1.17383 -0.005,-0.0129 -0.006,-0.0326 -0.0117,-0.0449 -0.23209,-0.53808 -0.63778,-0.92735 -1.20507,-1.17383 -0.005,-0.0122 -0.005,-0.0313 -0.01,-0.043 -0.23164,-0.53704 -0.63756,-0.92725 -1.20312,-1.17383 -0.004,-0.0106 -0.005,-0.0269 -0.01,-0.0371 -0.23083,-0.53515 -0.63484,-0.92318 -1.19727,-1.16992 -0.004,-0.0111 -0.005,-0.0284 -0.01,-0.0391 -0.23028,-0.53388 -0.63306,-0.92113 -1.19336,-1.16797 -0.004,-0.01 -0.006,-0.0255 -0.01,-0.0352 -0.23021,-0.53371 -0.63333,-0.92111 -1.19336,-1.16796 -0.004,-0.009 -0.004,-0.0227 -0.008,-0.0312 -0.22943,-0.53192 -0.62851,-0.91903 -1.18555,-1.16602 -0.003,-0.008 -0.004,-0.0213 -0.008,-0.0293 -0.22888,-0.53062 -0.62868,-0.91697 -1.18359,-1.16406 -0.003,-0.008 -0.005,-0.0198 -0.008,-0.0273 -0.22862,-0.53003 -0.62773,-0.91498 -1.18164,-1.16211 -0.003,-0.007 -0.003,-0.017 -0.006,-0.0234 -0.22786,-0.52825 -0.62478,-0.9129 -1.17579,-1.16016 -0.003,-0.007 -0.003,-0.017 -0.006,-0.0234 -0.22778,-0.52807 -0.6251,-0.91289 -1.17579,-1.16016 -0.002,-0.005 -0.002,-0.0128 -0.004,-0.0176 -0.22722,-0.52678 -0.62135,-0.91085 -1.16992,-1.1582 -0.002,-0.005 -0.002,-0.0128 -0.004,-0.0176 -0.22634,-0.52473 -0.6208,-0.90486 -1.16602,-1.15234 -0.002,-0.005 -0.002,-0.0128 -0.004,-0.0176 -0.22585,-0.5236 -0.61877,-0.9048 -1.16211,-1.15234 -0.002,-0.004 -0.002,-0.01 -0.004,-0.0137 -0.22551,-0.52283 -0.61806,-0.90279 -1.16015,-1.15039 -10e-4,-0.003 -8.2e-4,-0.007 -0.002,-0.01 -0.2251,-0.52188 -0.61571,-0.90275 -1.15625,-1.15039 -9.1e-4,-0.002 -10e-4,-0.006 -0.002,-0.008 -0.22445,-0.52036 -0.61232,-0.90071 -1.15039,-1.14843 -7e-4,-0.002 -10e-4,-0.004 -0.002,-0.006 -0.22418,-0.51974 -0.61334,-0.89873 -1.15039,-1.14649 0,0 0,-0.002 0,-0.002 -0.22368,-0.51857 -0.60939,-0.89867 -1.14454,-1.14649 -0.22289,-0.51676 -0.6084,-0.89272 -1.14062,-1.14062 0,0 0,-0.002 0,-0.002 -0.22272,-0.51531 -0.60804,-0.89296 -1.13867,-1.14063 -0.22262,-0.51248 -0.60678,-0.88772 -1.13477,-1.13476 -0.22287,-0.51148 -0.60527,-0.88618 -1.13281,-1.13282 -0.2225,-0.50654 -0.60042,-0.87935 -1.12305,-1.125 -0.22227,-0.506 -0.60126,-0.87934 -1.12304,-1.125 -0.2219,-0.50164 -0.59786,-0.87239 -1.11524,-1.11718 -0.22149,-0.50072 -0.59738,-0.87043 -1.11328,-1.11524 -0.22188,-0.49907 -0.59813,-0.86719 -1.11328,-1.11133 -0.22132,-0.49485 -0.59096,-0.86208 -1.10156,-1.10547 -0.22117,-0.4935 -0.59236,-0.86039 -1.10157,-1.10351 -0.22106,-0.49083 -0.59088,-0.85519 -1.09765,-1.09766 -0.22053,-0.48725 -0.58701,-0.84996 -1.08985,-1.09179 -0.22063,-0.48743 -0.58863,-0.84998 -1.09179,-1.0918 -0.22034,-0.48298 -0.58309,-0.84321 -1.08203,-1.08398 -0.21981,-0.48177 -0.58304,-0.84128 -1.08008,-1.08204 -0.2194,-0.47848 -0.58059,-0.83608 -1.07422,-1.07617 -0.21922,-0.47718 -0.58,-0.83439 -1.07227,-1.07422 -0.21903,-0.47443 -0.57867,-0.82921 -1.06836,-1.06836 -0.2189,-0.47189 -0.57511,-0.82596 -1.0625,-1.06445 -0.21869,-0.46996 -0.57509,-0.82249 -1.06054,-1.06055 -0.21855,-0.46745 -0.57152,-0.81924 -1.05469,-1.05664 -0.21785,-0.46449 -0.56921,-0.8158 -1.04883,-1.05273 -0.21761,-0.46219 -0.56953,-0.81049 -1.04687,-1.04688 -0.21734,-0.46024 -0.56764,-0.80701 -1.04297,-1.04296 -0.21717,-0.45855 -0.56537,-0.80549 -1.03907,-1.04102 -0.21696,-0.45513 -0.56257,-0.80057 -1.0332,-1.03516 -0.2165,-0.45327 -0.56091,-0.79696 -1.0293,-1.03125 -0.216,-0.45082 -0.55974,-0.79354 -1.02539,-1.02734 -0.21607,-0.44879 -0.55928,-0.79033 -1.02343,-1.02344 -0.21582,-0.44619 -0.5559,-0.78515 -1.01758,-1.01758 -0.21563,-0.44452 -0.55361,-0.78363 -1.01367,-1.01562 -0.21536,-0.44184 -0.55223,-0.77849 -1.00977,-1.00977 -0.21457,-0.43869 -0.54814,-0.77516 -1.00195,-1.00586 -0.21427,-0.43738 -0.54966,-0.77152 -1.00195,-1.00195 -0.21407,-0.435 -0.54597,-0.7683 -0.9961,-0.99805 -0.21353,-0.43254 -0.5448,-0.76492 -0.99219,-0.99414 -0.21332,-0.43005 -0.54313,-0.76174 -0.98828,-0.99023 -0.213,-0.42792 -0.54137,-0.75644 -0.98437,-0.98438 -0.21244,-0.42526 -0.53845,-0.75313 -0.97852,-0.98047 -0.21221,-0.42375 -0.53799,-0.75157 -0.97656,-0.97851 -0.21167,-0.42067 -0.53533,-0.74651 -0.9707,-0.97266 -0.21143,-0.41874 -0.53325,-0.74314 -0.9668,-0.96875 -0.21111,-0.41678 -0.53327,-0.73976 -0.96484,-0.96484 -0.21075,-0.41395 -0.53009,-0.73473 -0.95899,-0.95898 -0.21051,-0.41262 -0.52755,-0.73314 -0.95508,-0.95704 -0.2099,-0.4095 -0.52493,-0.72808 -0.94922,-0.95117 -0.20954,-0.40803 -0.52464,-0.72452 -0.94726,-0.94726 -0.20905,-0.40536 -0.52152,-0.72329 -0.94141,-0.94532 -0.20891,-0.40342 -0.52117,-0.71808 -0.93945,-0.93945 -0.20843,-0.40094 -0.51788,-0.71485 -0.93359,-0.93555 -0.20802,-0.39829 -0.51655,-0.70977 -0.92969,-0.92968 -0.20744,-0.39662 -0.51475,-0.70816 -0.92578,-0.92774 -0.20679,-0.39354 -0.5121,-0.70314 -0.91993,-0.92187 -0.20652,-0.39233 -0.51143,-0.70152 -0.91796,-0.91992 -0.20648,-0.39021 -0.5091,-0.69842 -0.91407,-0.91602 -0.20582,-0.38682 -0.50664,-0.6916 -0.9082,-0.9082 -0.20518,-0.38509 -0.50496,-0.69 -0.9043,-0.90625 -0.20476,-0.38307 -0.50311,-0.68473 -0.90039,-0.90039 -0.20445,-0.38143 -0.50083,-0.68328 -0.89648,-0.89844 -0.20382,-0.37899 -0.49961,-0.68003 -0.89258,-0.89453 -0.20312,-0.37596 -0.49692,-0.67506 -0.88672,-0.88867 -0.20306,-0.37466 -0.49595,-0.67166 -0.88476,-0.88477 -0.2024,-0.37239 -0.49268,-0.66834 -0.87891,-0.88086 -0.20197,-0.3704 -0.49273,-0.66505 -0.87695,-0.87695 -0.20164,-0.36829 -0.48881,-0.66187 -0.8711,-0.87305 -0.20094,-0.3658 -0.48764,-0.65866 -0.86718,-0.86914 -0.2006,-0.36351 -0.4858,-0.65556 -0.86329,-0.86523 -0.20012,-0.361 -0.48429,-0.65054 -0.85937,-0.85938 -0.19954,-0.35894 -0.4807,-0.64918 -0.85352,-0.85742 -0.1984,-0.35562 -0.4807,-0.6403 -0.84961,-0.84766 -0.19841,-0.35584 -0.47859,-0.64217 -0.84765,-0.84961 -0.19803,-0.35299 -0.47519,-0.63932 -0.8418,-0.8457 0,0 -0.002,0 -0.002,0 -0.197,-0.34871 -0.47173,-0.63096 -0.83399,-0.83594 -0.19661,-0.34878 -0.47227,-0.62878 -0.83398,-0.83398 -0.19584,-0.34647 -0.46907,-0.62555 -0.82813,-0.83008 -0.19536,-0.345 -0.46879,-0.62207 -0.82617,-0.82617 -0.19485,-0.34316 -0.46683,-0.61876 -0.82226,-0.82227 -0.19377,-0.33979 -0.4628,-0.61587 -0.81446,-0.81836 -0.19353,-0.33869 -0.46384,-0.61041 -0.81445,-0.8125 -0.19249,-0.33603 -0.45927,-0.60919 -0.80664,-0.81054 -0.19199,-0.33448 -0.45905,-0.60383 -0.80469,-0.80469 -0.19119,-0.33219 -0.4558,-0.60062 -0.79883,-0.80078 -0.19069,-0.33073 -0.4555,-0.59717 -0.79687,-0.79688 -0.19016,-0.32891 -0.45352,-0.59388 -0.79297,-0.79297 -0.18931,-0.32612 -0.45063,-0.59091 -0.78711,-0.78906 -0.18856,-0.32418 -0.44902,-0.5876 -0.7832,-0.78516 -0.18753,-0.32145 -0.44636,-0.58062 -0.77735,-0.77734 -0.18752,-0.32146 -0.44635,-0.58063 -0.77734,-0.77734 -0.18669,-0.31866 -0.4434,-0.57771 -0.77148,-0.77344 -0.18576,-0.31564 -0.44074,-0.57292 -0.76563,-0.76758 -0.18484,-0.31352 -0.43944,-0.56769 -0.76172,-0.76172 -0.18446,-0.31255 -0.43665,-0.56606 -0.75781,-0.75976 -0.18394,-0.31112 -0.43632,-0.56264 -0.75586,-0.75586 -0.1831,-0.30835 -0.43331,-0.55975 -0.75,-0.75196 -0.18194,-0.30509 -0.43104,-0.55308 -0.74414,-0.74414 -0.18128,-0.30442 -0.42849,-0.55118 -0.74023,-0.74218 -0.18075,-0.303 -0.42814,-0.54778 -0.73829,-0.73829 -0.17989,-0.30075 -0.4248,-0.54465 -0.73242,-0.73437 -0.17954,-0.29963 -0.424,-0.54313 -0.73047,-0.73242 -0.17833,-0.29582 -0.42205,-0.53679 -0.72461,-0.72461 -0.17827,-0.29542 -0.42039,-0.53502 -0.72265,-0.72266 -0.17687,-0.29182 -0.41664,-0.53045 -0.71485,-0.71679 -0.17612,-0.29058 -0.41449,-0.52691 -0.71093,-0.71289 -0.17558,-0.28916 -0.41413,-0.52353 -0.70899,-0.70899 -0.1747,-0.28694 -0.41074,-0.52043 -0.70312,-0.70508 -0.17415,-0.28552 -0.41036,-0.51705 -0.70117,-0.70117 -0.17354,-0.28377 -0.40829,-0.51385 -0.69727,-0.69726 -0.17209,-0.2802 -0.40447,-0.50935 -0.68945,-0.69141 -0.17209,-0.28016 -0.4045,-0.50741 -0.68946,-0.68945 -0.17112,-0.2774 -0.40147,-0.50268 -0.68359,-0.6836 -0.17047,-0.27559 -0.39947,-0.50145 -0.67969,-0.68164 -0.16945,-0.27275 -0.39654,-0.49676 -0.67383,-0.67578 -0.16887,-0.27136 -0.39613,-0.4934 -0.67187,-0.67188 -0.16772,-0.26878 -0.3913,-0.48853 -0.66406,-0.66601 -0.1675,-0.2684 -0.39183,-0.4867 -0.66407,-0.66406 -0.16599,-0.26485 -0.38795,-0.48228 -0.65625,-0.65821 -0.16524,-0.26363 -0.38572,-0.47876 -0.65234,-0.65429 -0.16513,-0.263 -0.38621,-0.47714 -0.65234,-0.65235 -0.16413,-0.26027 -0.38314,-0.47245 -0.64649,-0.64648 -0.16272,-0.25736 -0.37875,-0.46774 -0.63867,-0.64063 -0.16248,-0.25698 -0.37927,-0.46591 -0.63867,-0.63867 -0.16202,-0.25556 -0.37672,-0.46461 -0.63477,-0.63672 -0.16034,-0.2514 -0.37328,-0.45861 -0.62695,-0.6289 -0.1594,-0.24992 -0.37142,-0.45329 -0.62305,-0.62305 0,0 -0.002,-0.002 -0.002,-0.002 -0.16014,-0.25038 -0.37211,-0.45523 -0.625,-0.625 -0.15927,-0.24723 -0.36897,-0.45092 -0.61914,-0.61914 -0.15793,-0.24378 -0.36467,-0.44663 -0.61133,-0.61328 -0.15719,-0.24226 -0.3625,-0.44337 -0.60742,-0.60938 -0.15682,-0.24102 -0.36165,-0.44006 -0.60547,-0.60547 -0.15552,-0.238 -0.35899,-0.43557 -0.59961,-0.59961 -0.15528,-0.23733 -0.35767,-0.43394 -0.59766,-0.59765 -0.15429,-0.23483 -0.35433,-0.43122 -0.59179,-0.59375 -0.15357,-0.23304 -0.35225,-0.4262 -0.58789,-0.5879 -0.15285,-0.2313 -0.35012,-0.4231 -0.58399,-0.58398 -0.1528,-0.2306 -0.34853,-0.42353 -0.58203,-0.58398 -0.15158,-0.22682 -0.34604,-0.41764 -0.57617,-0.57618 -0.15069,-0.22479 -0.34229,-0.41469 -0.57031,-0.57226 -0.15029,-0.2236 -0.34143,-0.4114 -0.56836,-0.56836 -0.14956,-0.22152 -0.33941,-0.40855 -0.56446,-0.56445 -0.14842,-0.21873 -0.3363,-0.40409 -0.55859,-0.5586 -0.14767,-0.21702 -0.33415,-0.40101 -0.55469,-0.55469 -0.14711,-0.21561 -0.33159,-0.39977 -0.55078,-0.55273 -0.1462,-0.21336 -0.32987,-0.39506 -0.54687,-0.54687 -0.14529,-0.21132 -0.32612,-0.39218 -0.54102,-0.54297 -0.14484,-0.21016 -0.32524,-0.38888 -0.53906,-0.53907 -0.14429,-0.20839 -0.32282,-0.38788 -0.53516,-0.5371 -0.14194,-0.20371 -0.31811,-0.3785 -0.52539,-0.5254 -0.14204,-0.20464 -0.31759,-0.37986 -0.52539,-0.52734 -0.1411,-0.20242 -0.31584,-0.37517 -0.52148,-0.52148 -0.14082,-0.20147 -0.31466,-0.37377 -0.51953,-0.51954 -0.13962,-0.19843 -0.3116,-0.36953 -0.51368,-0.51367 -0.13945,-0.19751 -0.31021,-0.36814 -0.51171,-0.51172 -0.13714,-0.19279 -0.30343,-0.36084 -0.5,-0.50195 -0.13738,-0.19358 -0.30475,-0.36039 -0.50196,-0.50195 -0.13708,-0.19228 -0.30369,-0.35922 -0.5,-0.5 -0.13524,-0.18831 -0.29787,-0.35355 -0.49023,-0.49219 -0.13456,-0.18707 -0.29729,-0.35029 -0.48828,-0.48828 -0.13375,-0.18528 -0.29316,-0.34933 -0.48242,-0.48633 -0.13288,-0.18336 -0.29307,-0.34258 -0.48047,-0.47851 -0.1316,-0.1812 -0.28967,-0.3398 -0.47461,-0.47461 -0.13139,-0.18061 -0.2882,-0.3382 -0.47266,-0.47266 -0.13081,-0.17897 -0.28564,-0.33721 -0.46875,-0.4707 -0.12961,-0.17611 -0.28237,-0.33302 -0.46289,-0.46485 -0.12813,-0.17334 -0.28137,-0.32672 -0.45898,-0.45703 -0.12761,-0.17243 -0.27651,-0.32722 -0.45313,-0.45703 -0.12668,-0.17056 -0.27639,-0.32049 -0.45117,-0.44922 -0.12539,-0.16846 -0.27293,-0.31771 -0.44531,-0.44531 -0.12484,-0.16743 -0.27008,-0.31636 -0.44141,-0.44336 -0.12416,-0.16603 -0.26948,-0.31522 -0.43945,-0.44141 -0.12313,-0.16361 -0.26771,-0.30886 -0.43555,-0.43359 -0.1221,-0.16163 -0.26382,-0.30612 -0.42969,-0.42969 -0.12112,-0.15989 -0.25978,-0.30517 -0.42383,-0.42773 -0.11948,-0.15705 -0.25888,-0.29901 -0.41992,-0.41992 -0.11972,-0.15728 -0.25851,-0.29696 -0.41992,-0.41797 -0.11793,-0.15422 -0.25199,-0.29483 -0.41016,-0.41406 -0.11709,-0.15277 -0.25156,-0.28984 -0.4082,-0.40821 -0.11672,-0.15188 -0.25035,-0.28844 -0.40625,-0.40625 -0.11654,-0.15092 -0.24892,-0.2891 -0.4043,-0.40625 -0.11413,-0.14639 -0.24358,-0.28016 -0.39453,-0.39453 -0.11324,-0.14518 -0.24116,-0.27695 -0.39062,-0.39062 -0.11271,-0.14449 -0.24009,-0.27539 -0.38867,-0.38868 -0.11115,-0.1418 -0.23698,-0.27313 -0.38282,-0.38476 -0.11053,-0.14074 -0.23414,-0.26989 -0.3789,-0.38086 -0.10971,-0.13911 -0.2337,-0.26508 -0.37696,-0.375 -0.10972,-0.13866 -0.23185,-0.26737 -0.375,-0.37695 -0.10743,-0.13449 -0.22611,-0.26027 -0.36523,-0.36719 -0.10576,-0.13213 -0.22299,-0.2539 -0.35938,-0.35938 -0.10615,-0.13298 -0.2242,-0.25528 -0.36132,-0.36132 -0.10418,-0.12974 -0.21973,-0.24954 -0.35352,-0.35352 -0.10385,-0.12906 -0.21836,-0.24804 -0.35156,-0.35156 -0.10254,-0.1268 -0.21667,-0.24561 -0.34766,-0.34766 -0.10165,-0.12527 -0.21229,-0.2427 -0.34179,-0.34375 -0.10046,-0.12328 -0.21038,-0.23815 -0.33789,-0.33789 -0.0992,-0.12136 -0.2066,-0.23549 -0.33204,-0.33398 -0.0981,-0.11963 -0.20641,-0.23274 -0.33007,-0.33008 -0.0976,-0.11869 -0.20333,-0.22947 -0.32618,-0.32617 -0.0962,-0.11665 -0.19965,-0.22691 -0.32031,-0.32227 -0.095,-0.11477 -0.1996,-0.22427 -0.31836,-0.31836 -0.0947,-0.1139 -0.1962,-0.22295 -0.31445,-0.31641 -0.0907,-0.10829 -0.19067,-0.21107 -0.30274,-0.30078 -0.093,-0.11179 -0.19294,-0.21844 -0.30859,-0.31054 -0.0882,-0.10498 -0.18273,-0.20355 -0.29102,-0.29102 -0.0893,-0.10747 -0.18664,-0.20759 -0.29687,-0.29687 -0.087,-0.10443 -0.18222,-0.20186 -0.28906,-0.28907 -0.0868,-0.10419 -0.18253,-0.20004 -0.28907,-0.28711 -0.0883,-0.10558 -0.18242,-0.20698 -0.29101,-0.29492 -0.0815,-0.096 -0.17102,-0.18635 -0.26953,-0.26758 -0.0826,-0.0986 -0.17309,-0.19025 -0.27344,-0.27343 -0.0826,-0.0984 -0.17123,-0.19241 -0.27148,-0.27539 -0.0798,-0.0944 -0.16757,-0.18154 -0.26368,-0.26172 -0.079,-0.0938 -0.16665,-0.17995 -0.26171,-0.25977 -0.0786,-0.0933 -0.16334,-0.18033 -0.25782,-0.25976 -0.0764,-0.0906 -0.1605,-0.17447 -0.25195,-0.25196 -0.0753,-0.0893 -0.15815,-0.17148 -0.24805,-0.24804 -0.0747,-0.0886 -0.15702,-0.17004 -0.24609,-0.2461 -0.0733,-0.0867 -0.1531,-0.16749 -0.24024,-0.24219 -0.0715,-0.0844 -0.15168,-0.16134 -0.23632,-0.23437 -0.0721,-0.085 -0.15094,-0.16483 -0.23633,-0.23828 -0.0684,-0.0801 -0.14439,-0.15291 -0.22461,-0.22266 -0.0698,-0.0822 -0.14624,-0.15914 -0.22852,-0.23047 -0.0657,-0.0768 -0.13818,-0.14759 -0.21484,-0.21484 -0.0661,-0.0776 -0.13956,-0.14886 -0.2168,-0.2168 -0.0644,-0.0754 -0.13596,-0.14465 -0.21093,-0.21094 -0.0632,-0.074 -0.13364,-0.1418 -0.20704,-0.20703 -0.0629,-0.0735 -0.13212,-0.14222 -0.20507,-0.20703 -0.0599,-0.0697 -0.12636,-0.13347 -0.19532,-0.19531 -0.0608,-0.071 -0.12899,-0.13635 -0.19922,-0.19922 -0.0573,-0.0664 -0.12198,-0.12626 -0.1875,-0.18555 -0.0572,-0.0667 -0.12007,-0.12802 -0.18554,-0.1875 -0.0563,-0.0655 -0.11927,-0.12501 -0.1836,-0.18359 -0.0546,-0.0633 -0.11567,-0.12092 -0.17773,-0.17773 -0.0528,-0.0612 -0.11209,-0.11673 -0.17187,-0.17188 -0.0528,-0.0613 -0.11204,-0.11667 -0.17188,-0.17187 -0.0505,-0.0584 -0.10721,-0.11121 -0.16406,-0.16407 -0.0499,-0.0578 -0.10596,-0.10976 -0.16211,-0.16211 -0.049,-0.0565 -0.10325,-0.10883 -0.15821,-0.16015 -0.0462,-0.0531 -0.0989,-0.10189 -0.15039,-0.15039 -0.0469,-0.054 -0.1,-0.10308 -0.15234,-0.15235 -0.0441,-0.0506 -0.0936,-0.0962 -0.14258,-0.14257 -0.0434,-0.05 -0.0925,-0.0948 -0.14062,-0.14063 -0.0418,-0.0479 -0.0887,-0.0926 -0.13477,-0.13672 -0.0407,-0.0468 -0.0879,-0.0877 -0.13281,-0.13086 -0.0399,-0.0457 -0.0851,-0.0866 -0.12891,-0.1289 -0.0389,-0.0446 -0.0823,-0.0857 -0.125,-0.12696 -0.0369,-0.042 -0.0789,-0.08 -0.11914,-0.11914 -0.0352,-0.0401 -0.0751,-0.0759 -0.11328,-0.11328 -0.0351,-0.0401 -0.0751,-0.0758 -0.11328,-0.11328 -0.0327,-0.0373 -0.0701,-0.0705 -0.10547,-0.10547 -0.0322,-0.0366 -0.0688,-0.0691 -0.10351,-0.10351 -0.0315,-0.0358 -0.0676,-0.0679 -0.10157,-0.10157 -0.0292,-0.0331 -0.0625,-0.0625 -0.0937,-0.0937 -0.0295,-0.0334 -0.0621,-0.0641 -0.0937,-0.0957 -0.024,-0.027 -0.0527,-0.0504 -0.0781,-0.0762 -0.0265,-0.0301 -0.0558,-0.0574 -0.084,-0.0859 -0.0243,-0.0275 -0.0523,-0.0518 -0.0781,-0.0781 -0.023,-0.026 -0.0499,-0.0493 -0.0742,-0.0742 -0.0219,-0.0247 -0.0472,-0.0466 -0.0703,-0.0703 -0.0202,-0.0227 -0.0433,-0.0426 -0.0645,-0.0645 -0.0192,-0.0216 -0.0404,-0.0416 -0.0605,-0.0625 -0.018,-0.0202 -0.0398,-0.0371 -0.0586,-0.0566 -0.0168,-0.0189 -0.0352,-0.0364 -0.0527,-0.0547 -0.015,-0.0168 -0.0333,-0.0306 -0.0488,-0.0469 -0.0144,-0.0161 -0.03,-0.0312 -0.0449,-0.0469 -0.0122,-0.0137 -0.0265,-0.0257 -0.0391,-0.0391 -0.0116,-0.013 -0.0251,-0.0244 -0.0371,-0.0371 -0.01,-0.011 -0.0212,-0.0205 -0.0312,-0.0312 -0.0107,-0.012 -0.0222,-0.0234 -0.0332,-0.0352 -0.007,-0.008 -0.0159,-0.0154 -0.0234,-0.0234 -0.006,-0.006 -0.012,-0.0115 -0.0176,-0.0176 -0.005,-0.005 -0.0107,-0.0103 -0.0156,-0.0156 -0.002,-0.003 -0.007,-0.007 -0.01,-0.01 -0.002,-0.002 -0.004,-0.004 -0.006,-0.006 -0.0331,-0.0366 -0.0737,-0.0672 -0.10938,-0.10156 -0.009,-0.009 -0.0181,-0.017 -0.0273,-0.0254 -0.0316,-0.0291 -0.0602,-0.0605 -0.0937,-0.0879 -0.47624,-0.39216 -1.1476,-0.61473 -2.01367,-0.65821 -0.662,-0.0332 -0.83919,-0.0424 -1.04102,-0.20508 -10e-4,-9.4e-4 -0.003,-0.003 -0.004,-0.004 -0.0335,-0.0273 -0.0778,-0.0748 -0.11524,-0.11133 -0.009,-0.009 -0.0195,-0.0175 -0.0293,-0.0273 -0.006,-0.006 -0.0112,-0.0111 -0.0176,-0.0176 -0.004,-0.004 -0.008,-0.007 -0.0117,-0.0117 -0.0122,-0.0124 -0.0202,-0.0199 -0.0332,-0.0332 -0.004,-0.004 -0.0116,-0.01 -0.0156,-0.0137 -0.003,-0.003 -0.007,-0.007 -0.01,-0.01 -0.002,-0.002 -0.005,-0.005 -0.008,-0.008 -0.0923,-0.0951 -0.19848,-0.18509 -0.3164,-0.27149 -0.84418,-0.61848 -2.28277,-0.99612 -3.43164,-0.86328 -0.38488,0.0445 -0.50063,0.0498 -0.71485,-0.10937 -0.0694,-0.0515 -0.15156,-0.12288 -0.25391,-0.21289 -0.003,-0.002 -0.005,-0.004 -0.008,-0.006 -0.12944,-0.11394 -0.25827,-0.20668 -0.39453,-0.28516 -0.41795,-0.24071 -0.9065,-0.32813 -1.70703,-0.32813 -0.67829,0 -0.82739,-0.0355 -1.23047,-0.28906 -0.25232,-0.15871 -0.63257,-0.34431 -0.8457,-0.41211 -0.50268,-0.15997 -1.85725,-0.08 -2.5,0.14649 l -0.48828,0.17187 -0.64063,-0.32617 c -0.46043,-0.23372 -0.82791,-0.34615 -1.25,-0.33203 z"
       id="path5183"
       inkscape:connector-curvature="0" />
  </g>
  <g
     style="display:inline"
     inkscape:label="raspberry"
     id="layer3"
     inkscape:groupmode="layer"
     transform="translate(-459.5656,-554.99632)">
    <path
       inkscape:connector-curvature="0"
       id="path4696"
       d="m 497.4156,656.67244 c -4.23215,-0.64174 -6.98053,-1.9985 -10.27176,-5.0707 -0.41309,-0.3856 -0.76888,-0.58641 -1.70823,-0.96412 -2.6773,-1.07654 -5.16357,-2.49899 -7.89789,-4.51857 -0.52737,-0.38951 -1.30579,-0.84826 -1.80338,-1.06278 -1.65658,-0.71419 -3.33793,-1.86313 -4.8559,-3.31825 -2.62692,-2.51816 -4.25056,-5.49036 -4.99865,-9.15043 -0.1349,-0.66 -0.56795,-2.1225 -0.96234,-3.25 -0.39438,-1.1275 -0.86654,-2.66745 -1.04925,-3.42211 -0.30827,-1.27333 -0.36453,-1.41011 -0.78142,-1.9 -1.14121,-1.34105 -2.39756,-3.6047 -2.90152,-5.22789 -0.53067,-1.70919 -0.61966,-2.36261 -0.61966,-4.55 0,-2.25121 0.13569,-3.14213 0.76874,-5.04748 0.96126,-2.89321 3.00308,-5.81518 5.17331,-7.40329 0.65907,-0.48229 0.88859,-0.72263 1.1761,-1.23152 0.3507,-0.62075 0.3587,-0.65998 0.43842,-2.15 0.0941,-1.7592 0.21574,-2.64716 0.54346,-3.96771 1.05338,-4.24465 3.30822,-7.15292 7.64666,-9.86262 l 0.82074,-0.51261 -0.73119,-0.22209 c -1.45754,-0.44272 -2.08368,-0.91753 -2.52359,-1.91369 -0.20916,-0.47362 -0.29711,-0.57089 -0.5646,-0.62439 -1.21157,-0.24231 -2.42764,-1.28572 -2.75892,-2.36721 -0.17248,-0.56307 -0.24267,-0.65585 -0.79766,-1.05443 -1.27531,-0.91587 -1.92411,-1.84245 -2.01843,-2.8826 -0.0524,-0.57773 -0.0784,-0.62567 -0.59524,-1.09806 -0.79219,-0.72401 -1.06991,-1.31733 -1.08313,-2.3139 -0.0105,-0.78902 -0.0179,-0.81143 -0.4714,-1.42753 -0.77397,-1.05135 -1.01857,-1.9627 -0.75916,-2.82853 0.10564,-0.35259 0.091,-0.41686 -0.19712,-0.86587 -0.7306,-1.13855 -0.79982,-1.95049 -0.25636,-3.00699 l 0.36064,-0.70107 -0.21064,-0.56296 c -0.75812,-2.02627 0.4505,-3.65545 2.71184,-3.65545 0.69845,0 0.7003,-7e-4 1.23885,-0.49294 0.83537,-0.76349 2.36042,-1.20963 3.63999,-1.06487 0.49326,0.0558 0.58616,0.0374 0.75544,-0.14964 0.10615,-0.11731 0.39495,-0.33162 0.64176,-0.47627 0.39107,-0.22918 0.58388,-0.26775 1.50012,-0.30007 0.65892,-0.0233 1.10737,-0.0848 1.20137,-0.165 0.74476,-0.63507 2.04535,-0.81069 3.36554,-0.45447 l 0.81399,0.21964 0.38524,-0.25328 c 0.83685,-0.55021 1.70357,-0.52588 3.13799,0.0881 l 0.79226,0.33911 0.71893,-0.1499 c 0.90397,-0.18849 1.44228,-0.088 2.42868,0.4532 0.67851,0.3723 0.72982,0.38446 1.25737,0.2981 0.62394,-0.10215 1.40898,0.008 1.97785,0.27823 0.20289,0.0963 0.68985,0.47993 1.08214,0.85257 l 0.71325,0.67752 h 0.70723 0.70723 l 0.79631,0.60004 c 1.03622,0.78081 2.06807,1.894 2.86426,3.09005 0.71773,1.07819 1.72006,3.10327 2.05897,4.15991 0.12349,0.385 0.2563,0.73667 0.29514,0.78149 0.0388,0.0448 0.12329,-0.12771 0.18768,-0.38341 0.18013,-0.7154 1.10852,-2.80524 1.64784,-3.70937 1.01824,-1.70702 2.28666,-3.15008 3.5748,-4.067 0.63194,-0.44981 0.69392,-0.47171 1.33512,-0.47171 h 0.67241 l 0.71211,-0.65931 c 0.39166,-0.36262 0.884,-0.74699 1.09408,-0.85417 0.55171,-0.28146 1.34539,-0.40426 1.98067,-0.30644 0.5194,0.08 0.5819,0.064 1.44291,-0.36831 0.79349,-0.39843 0.97693,-0.45171 1.55,-0.45026 0.3575,9e-4 0.81138,0.056 1.00861,0.12242 0.331,0.11146 0.4388,0.0885 1.4,-0.2977 1.35255,-0.54348 1.90418,-0.56194 2.82505,-0.0945 l 0.64038,0.32504 0.48798,-0.17196 c 0.64275,-0.22649 1.9978,-0.3052 2.50048,-0.14523 0.21313,0.0678 0.59394,0.25317 0.84626,0.41188 0.40308,0.25355 0.55243,0.28857 1.23072,0.28857 1.06152,0 1.57558,0.15001 2.10205,0.61343 0.42699,0.37585 0.46266,0.38786 0.97583,0.32852 1.30937,-0.1514 2.99585,0.35925 3.74879,1.1351 0.38213,0.39377 0.38976,0.39639 1.28413,0.44126 1.35245,0.0679 2.23636,0.56471 2.63056,1.47866 0.21879,0.50729 0.18786,1.53734 -0.0659,2.19583 l -0.20921,0.54279 0.29174,0.5099 c 0.61451,1.07405 0.5692,1.99099 -0.15427,3.12195 -0.32287,0.50473 -0.3456,0.58524 -0.23832,0.84424 0.31136,0.75168 -0.0796,2.15555 -0.85145,3.05725 -0.34011,0.39735 -0.35339,0.44266 -0.35339,1.20599 0,0.68595 -0.0417,0.87652 -0.30834,1.41019 -0.19424,0.38871 -0.48634,0.76714 -0.78931,1.02261 -0.44148,0.37226 -0.48674,0.4522 -0.55141,0.97391 -0.13865,1.11858 -0.70466,1.9662 -1.88202,2.81837 -0.63057,0.4564 -0.77922,0.61806 -0.87352,0.95 -0.36839,1.29659 -1.20671,2.08286 -2.76373,2.59211 -0.43104,0.14098 -0.52893,0.21777 -0.58125,0.45601 -0.10473,0.47681 -0.63108,1.16862 -1.13531,1.49218 -0.26187,0.16804 -0.86156,0.42688 -1.33264,0.5752 l -0.8565,0.26966 0.91202,0.57244 c 2.29024,1.43751 4.33795,3.28961 5.41201,4.89504 1.13245,1.69269 1.93746,3.70231 2.34233,5.84736 0.21595,1.14417 0.40534,2.99021 0.40682,3.96539 7e-4,0.46299 0.0658,0.68034 0.35917,1.2 0.19708,0.34903 0.41627,0.66734 0.4871,0.70735 0.40974,0.23147 1.43698,1.08002 2.06414,1.70508 2.21608,2.20868 3.79526,5.2997 4.45609,8.72218 0.24247,1.25578 0.23787,3.85911 -0.009,5.15 -0.49006,2.56141 -1.60936,4.97122 -3.25133,7 -0.33385,0.4125 -0.627,0.84 -0.65145,0.95 -0.32828,1.47705 -0.70322,2.76538 -1.32419,4.55 -0.42057,1.20869 -0.83237,2.60061 -0.94057,3.17922 -0.79505,4.25151 -3.16927,8.01142 -6.76813,10.71827 -0.9982,0.75079 -2.57877,1.6554 -3.39644,1.94389 -0.22032,0.0777 -0.8222,0.45284 -1.33751,0.83357 -2.8492,2.1051 -5.29974,3.51488 -8.03634,4.62323 -1.21871,0.49359 -1.35033,0.57447 -2.11896,1.30205 -2.71335,2.56841 -5.87667,4.14093 -9.34445,4.64521 -0.96161,0.13984 -3.68817,0.19541 -4.38717,0.0894 z"
       style="fill:#ffffff;fill-opacity:1;stroke-width:0.1" />
  </g>
  <g
     sodipodi:insensitive="true"
     style="display:none"
     inkscape:label="raspberry copy"
     id="layer2"
     inkscape:groupmode="layer"
     transform="translate(-459.5656,-554.99632)">
    <path
       inkscape:connector-curvature="0"
       id="path4696-3"
       d="m 415.42241,522.73678 c -4.23215,-0.64174 -6.98053,-1.9985 -10.27176,-5.0707 -0.41309,-0.3856 -0.76888,-0.58641 -1.70823,-0.96412 -2.6773,-1.07654 -5.16357,-2.49899 -7.89789,-4.51857 -0.52737,-0.38951 -1.30579,-0.84826 -1.80338,-1.06278 -1.65658,-0.71419 -3.33793,-1.86313 -4.8559,-3.31825 -2.62692,-2.51816 -4.25056,-5.49036 -4.99865,-9.15043 -0.1349,-0.66 -0.56795,-2.1225 -0.96234,-3.25 -0.39438,-1.1275 -0.86654,-2.66745 -1.04925,-3.42211 -0.30827,-1.27333 -0.36453,-1.41011 -0.78142,-1.9 -1.14121,-1.34105 -2.39756,-3.6047 -2.90152,-5.22789 -0.53067,-1.70919 -0.61966,-2.36261 -0.61966,-4.55 0,-2.25121 0.13569,-3.14213 0.76874,-5.04748 0.96126,-2.89321 3.00308,-5.81518 5.17331,-7.40329 0.65907,-0.48229 0.88859,-0.72263 1.1761,-1.23152 0.3507,-0.62075 0.3587,-0.65998 0.43842,-2.15 0.0941,-1.7592 0.21574,-2.64716 0.54346,-3.96771 1.05338,-4.24465 3.30822,-7.15292 7.64666,-9.86262 l 0.82074,-0.51261 -0.73119,-0.22209 c -1.45754,-0.44272 -2.08368,-0.91753 -2.52359,-1.91369 -0.20916,-0.47362 -0.29711,-0.57089 -0.5646,-0.62439 -1.21157,-0.24231 -2.42764,-1.28572 -2.75892,-2.36721 -0.17248,-0.56307 -0.24267,-0.65585 -0.79766,-1.05443 -1.27531,-0.91587 -1.92411,-1.84245 -2.01843,-2.8826 -0.0524,-0.57773 -0.0784,-0.62567 -0.59524,-1.09806 -0.79219,-0.72401 -1.06991,-1.31733 -1.08313,-2.3139 -0.0105,-0.78902 -0.0179,-0.81143 -0.4714,-1.42753 -0.77397,-1.05135 -1.01857,-1.9627 -0.75916,-2.82853 0.10564,-0.35259 0.091,-0.41686 -0.19712,-0.86587 -0.7306,-1.13855 -0.79982,-1.95049 -0.25636,-3.00699 l 0.36064,-0.70107 -0.21064,-0.56296 c -0.75812,-2.02627 0.4505,-3.65545 2.71184,-3.65545 0.69845,0 0.7003,-7e-4 1.23885,-0.49294 0.83537,-0.76349 2.36042,-1.20963 3.63999,-1.06487 0.49326,0.0558 0.58616,0.0374 0.75544,-0.14964 0.10615,-0.11731 0.39495,-0.33162 0.64176,-0.47627 0.39107,-0.22918 0.58388,-0.26775 1.50012,-0.30007 0.65892,-0.0233 1.10737,-0.0848 1.20137,-0.165 0.74476,-0.63507 2.04535,-0.81069 3.36554,-0.45447 l 0.81399,0.21964 0.38524,-0.25328 c 0.83685,-0.55021 1.70357,-0.52588 3.13799,0.0881 l 0.79226,0.33911 0.71893,-0.1499 c 0.90397,-0.18849 1.44228,-0.088 2.42868,0.4532 0.67851,0.3723 0.72982,0.38446 1.25737,0.2981 0.62394,-0.10215 1.40898,0.008 1.97785,0.27823 0.20289,0.0963 0.68985,0.47993 1.08214,0.85257 l 0.71325,0.67752 h 0.70723 0.70723 l 0.79631,0.60004 c 1.03622,0.78081 2.06807,1.894 2.86426,3.09005 0.71773,1.07819 1.72006,3.10327 2.05897,4.15991 0.12349,0.385 0.2563,0.73667 0.29514,0.78149 0.0388,0.0448 0.12329,-0.12771 0.18768,-0.38341 0.18013,-0.7154 1.10852,-2.80524 1.64784,-3.70937 1.01824,-1.70702 2.28666,-3.15008 3.5748,-4.067 0.63194,-0.44981 0.69392,-0.47171 1.33512,-0.47171 h 0.67241 l 0.71211,-0.65931 c 0.39166,-0.36262 0.884,-0.74699 1.09408,-0.85417 0.55171,-0.28146 1.34539,-0.40426 1.98067,-0.30644 0.5194,0.08 0.5819,0.064 1.44291,-0.36831 0.79349,-0.39843 0.97693,-0.45171 1.55,-0.45026 0.3575,9e-4 0.81138,0.056 1.00861,0.12242 0.331,0.11146 0.4388,0.0885 1.4,-0.2977 1.35255,-0.54348 1.90418,-0.56194 2.82505,-0.0945 l 0.64038,0.32504 0.48798,-0.17196 c 0.64275,-0.22649 1.9978,-0.3052 2.50048,-0.14523 0.21313,0.0678 0.59394,0.25317 0.84626,0.41188 0.40308,0.25355 0.55243,0.28857 1.23072,0.28857 1.06152,0 1.57558,0.15001 2.10205,0.61343 0.42699,0.37585 0.46266,0.38786 0.97583,0.32852 1.30937,-0.1514 2.99585,0.35925 3.74879,1.1351 0.38213,0.39377 0.38976,0.39639 1.28413,0.44126 1.35245,0.0679 2.23636,0.56471 2.63056,1.47866 0.21879,0.50729 0.18786,1.53734 -0.0659,2.19583 l -0.20921,0.54279 0.29174,0.5099 c 0.61451,1.07405 0.5692,1.99099 -0.15427,3.12195 -0.32287,0.50473 -0.3456,0.58524 -0.23832,0.84424 0.31136,0.75168 -0.0796,2.15555 -0.85145,3.05725 -0.34011,0.39735 -0.35339,0.44266 -0.35339,1.20599 0,0.68595 -0.0417,0.87652 -0.30834,1.41019 -0.19424,0.38871 -0.48634,0.76714 -0.78931,1.02261 -0.44148,0.37226 -0.48674,0.4522 -0.55141,0.97391 -0.13865,1.11858 -0.70466,1.9662 -1.88202,2.81837 -0.63057,0.4564 -0.77922,0.61806 -0.87352,0.95 -0.36839,1.29659 -1.20671,2.08286 -2.76373,2.59211 -0.43104,0.14098 -0.52893,0.21777 -0.58125,0.45601 -0.10473,0.47681 -0.63108,1.16862 -1.13531,1.49218 -0.26187,0.16804 -0.86156,0.42688 -1.33264,0.5752 l -0.8565,0.26966 0.91202,0.57244 c 2.29024,1.43751 4.33795,3.28961 5.41201,4.89504 1.13245,1.69269 1.93746,3.70231 2.34233,5.84736 0.21595,1.14417 0.40534,2.99021 0.40682,3.96539 7e-4,0.46299 0.0658,0.68034 0.35917,1.2 0.19708,0.34903 0.41627,0.66734 0.4871,0.70735 0.40974,0.23147 1.43698,1.08002 2.06414,1.70508 2.21608,2.20868 3.79526,5.2997 4.45609,8.72218 0.24247,1.25578 0.23787,3.85911 -0.009,5.15 -0.49006,2.56141 -1.60936,4.97122 -3.25133,7 -0.33385,0.4125 -0.627,0.84 -0.65145,0.95 -0.32828,1.47705 -0.70322,2.76538 -1.32419,4.55 -0.42057,1.20869 -0.83237,2.60061 -0.94057,3.17922 -0.79505,4.25151 -3.16927,8.01142 -6.76813,10.71827 -0.9982,0.75079 -2.57877,1.6554 -3.39644,1.94389 -0.22032,0.0777 -0.8222,0.45284 -1.33751,0.83357 -2.8492,2.1051 -5.29974,3.51488 -8.03634,4.62323 -1.21871,0.49359 -1.35033,0.57447 -2.11896,1.30205 -2.71335,2.56841 -5.87667,4.14093 -9.34445,4.64521 -0.96161,0.13984 -3.68817,0.19541 -4.38717,0.0894 z"
       style="display:inline;fill:#ffffff;fill-opacity:1;stroke-width:0.1" />
  </g>
  <g
     style="display:inline"
     inkscape:label="relays"
     id="layer4"
     inkscape:groupmode="layer"
     transform="translate(-459.5656,-554.99632)">
    <path
       style="display:inline;opacity:1;fill:#26a69a;fill-opacity:1;stroke-width:2.7191999"
       id="path4697"
       d="m 474.89016,594.10844 h 10.8768 a 2.7192,2.7192 0 0 1 2.7192,2.7192 v 38.0688 a 2.7192,2.7192 0 0 1 -2.7192,2.7192 h -10.8768 a 2.7192,2.7192 0 0 1 -2.7192,-2.7192 v -38.0688 a 2.7192,2.7192 0 0 1 2.7192,-2.7192 m 19.0344,0 h 10.8768 a 2.7192,2.7192 0 0 1 2.7192,2.7192 v 38.0688 a 2.7192,2.7192 0 0 1 -2.7192,2.7192 h -10.8768 a 2.7192,2.7192 0 0 1 -2.7192,-2.7192 v -38.0688 a 2.7192,2.7192 0 0 1 2.7192,-2.7192 m 19.0344,0 h 10.8768 a 2.7192,2.7192 0 0 1 2.7192,2.7192 v 38.0688 a 2.7192,2.7192 0 0 1 -2.7192,2.7192 h -10.8768 a 2.7192,2.7192 0 0 1 -2.7192,-2.7192 v -38.0688 a 2.7192,2.7192 0 0 1 2.7192,-2.7192 m -35.3496,38.0688 h 5.4384 v -13.596 h -5.4384 v 13.596 m 19.0344,-19.0344 h 5.4384 v -13.596 h -5.4384 v 13.596 m 19.0344,19.0344 h 5.4384 v -13.596 h -5.4384 z"
       inkscape:connector-curvature="0" />
  </g>
</svg>
